<svg width="24" height="24" viewBox="0 0 24 24" fill="none" xmlns="http://www.w3.org/2000/svg">
<path d="M7 14V20H17V14H7ZM15 7C15 6.60603 14.9224 6.21593 14.7716 5.85195C14.6209 5.48797 14.3999 5.15726 14.1213 4.87868C13.8427 4.6001 13.512 4.37913 13.1481 4.22836C12.7841 4.0776 12.394 4 12 4C11.606 4 11.2159 4.0776 10.8519 4.22836C10.488 4.37913 10.1573 4.6001 9.87868 4.87868C9.6001 5.15726 9.37913 5.48797 9.22836 5.85195C9.0776 6.21593 9 6.60603 9 7V12H17C17.5304 12 18.0391 12.2107 18.4142 12.5858C18.7893 12.9609 19 13.4696 19 14V20C19 20.5304 18.7893 21.0391 18.4142 21.4142C18.0391 21.7893 17.5304 22 17 22H7C6.46957 22 5.96086 21.7893 5.58579 21.4142C5.21071 21.0391 5 20.5304 5 20V14C5 13.4696 5.21071 12.9609 5.58579 12.5858C5.96086 12.2107 6.46957 12 7 12V7C7 5.67392 7.52678 4.40215 8.46447 3.46447C9.40215 2.52678 10.6739 2 12 2C13.3261 2 14.5979 2.52678 15.5355 3.46447C16.4732 4.40215 17 5.67392 17 7C17 7.26522 16.8946 7.51957 16.7071 7.70711C16.5196 7.89464 16.2652 8 16 8C15.7348 8 15.4804 7.89464 15.2929 7.70711C15.1054 7.51957 15 7.26522 15 7ZM12 19C11.4696 19 10.9609 18.7893 10.5858 18.4142C10.2107 18.0391 10 17.5304 10 17C10 16.4696 10.2107 15.9609 10.5858 15.5858C10.9609 15.2107 11.4696 15 12 15C12.5304 15 13.0391 15.2107 13.4142 15.5858C13.7893 15.9609 14 16.4696 14 17C14 17.5304 13.7893 18.0391 13.4142 18.4142C13.0391 18.7893 12.5304 19 12 19Z" fill="black"/>
</svg>
