<svg width="30" height="30" viewBox="0 0 30 30" fill="none" xmlns="http://www.w3.org/2000/svg">
<path d="M25 0H5C2.23858 0 0 2.23858 0 5V25C0 27.7614 2.23858 30 5 30H25C27.7614 30 30 27.7614 30 25V5C30 2.23858 27.7614 0 25 0Z" fill="#DF783D"/>
<path fill-rule="evenodd" clip-rule="evenodd" d="M16.2418 20.8102C15.5983 20.806 14.9671 20.5492 14.4783 20.1092C13.9895 19.6691 13.6682 19.0681 13.5968 18.4286C13.5661 18.1542 13.7637 17.9069 14.0381 17.8762C14.3126 17.8455 14.5599 18.0431 14.5906 18.3175C14.6332 18.699 14.8293 19.0796 15.1474 19.366C15.4655 19.6525 15.8646 19.8077 16.2484 19.8102L16.2418 20.8102ZM16.2484 19.8102L18.1853 19.8229C18.1853 19.8229 18.1852 19.8229 18.1853 19.8229C18.5665 19.8253 18.8966 19.6783 19.1172 19.4333C19.3379 19.1882 19.4496 18.8446 19.4073 18.4657C19.3648 18.0842 19.1687 17.7035 18.8505 17.417C18.5323 17.1305 18.1331 16.9752 17.7493 16.9728L16.781 16.9666C16.5048 16.9648 16.2824 16.7395 16.2842 16.4634C16.2859 16.1873 16.5112 15.9648 16.7874 15.9666L17.7557 15.9728C18.3993 15.9769 19.0307 16.2336 19.5196 16.6738C20.0085 17.114 20.3298 17.7152 20.4012 18.3548C20.4728 18.997 20.2856 19.6301 19.8604 20.1024C19.4351 20.5747 18.825 20.827 18.1789 20.8229L16.2418 20.8102" fill="url(#paint0_linear_35_722)"/>
<path fill-rule="evenodd" clip-rule="evenodd" d="M11.9949 20.7834C11.3513 20.7793 10.7198 20.5226 10.231 20.0824C9.74208 19.6422 9.42076 19.041 9.34941 18.4014C9.27776 17.7592 9.46491 17.1261 9.89018 16.6538C10.3155 16.1815 10.9255 15.9292 11.5717 15.9333H11.5718L13.5088 15.946H13.5088C14.1522 15.9502 14.7835 16.2069 15.2723 16.647C15.761 17.0871 16.0823 17.6881 16.1538 18.3276C16.1845 18.602 15.9869 18.8493 15.7124 18.88C15.438 18.9107 15.1907 18.7131 15.16 18.4387C15.1174 18.0572 14.9213 17.6766 14.6031 17.3902C14.285 17.1037 13.886 16.9485 13.5022 16.946L11.5653 16.9333C11.184 16.9308 10.854 17.0778 10.6333 17.3229C10.4127 17.568 10.301 17.9116 10.3432 18.2905C10.3858 18.672 10.5819 19.0527 10.9001 19.3392C11.2183 19.6257 11.6174 19.7809 12.0013 19.7834L12.9696 19.7896C13.2457 19.7914 13.4682 20.0166 13.4664 20.2928C13.4646 20.5689 13.2393 20.7913 12.9632 20.7896L11.9949 20.7834L11.9981 20.2834L11.9949 20.7834Z" fill="url(#paint1_linear_35_722)"/>
<path fill-rule="evenodd" clip-rule="evenodd" d="M21.9061 9.48623C22.0519 9.42126 22.2183 9.42126 22.3641 9.48623L27.3503 11.7085C27.553 11.7989 27.6838 12.0002 27.6838 12.2222V17.7778C27.6838 17.9999 27.553 18.2012 27.3503 18.2916L22.3641 20.5138C22.1901 20.5914 21.9886 20.5756 21.8288 20.4718C21.669 20.3681 21.5726 20.1905 21.5726 20V14.8096L17.7115 13.0888V14.4445C17.7115 14.7551 17.4597 15.007 17.149 15.007C16.8384 15.007 16.5865 14.7551 16.5865 14.4445V12.2222C16.5865 12.0002 16.7172 11.7989 16.92 11.7085L21.9061 9.48623ZM18.5308 12.2222L22.1351 13.8286L25.7395 12.2222L22.1351 10.6159L18.5308 12.2222ZM26.5588 13.0888L22.6976 14.8096V19.1335L26.5588 17.4127V13.0888Z" fill="url(#paint2_linear_35_722)"/>
<path fill-rule="evenodd" clip-rule="evenodd" d="M7.65748 9.73623C7.80323 9.67126 7.9697 9.67126 8.11545 9.73623L13.1015 11.9585C13.3044 12.0489 13.435 12.2502 13.435 12.4722V14.6945C13.435 15.0051 13.1832 15.257 12.8725 15.257C12.5619 15.257 12.31 15.0051 12.31 14.6945V13.3388L8.44895 15.0596V20.25C8.44895 20.4405 8.35253 20.6181 8.19273 20.7218C8.03293 20.8256 7.8315 20.8413 7.65748 20.7638L2.6714 18.5416C2.46856 18.4512 2.33789 18.2499 2.33789 18.0278V12.4722C2.33789 12.2502 2.46856 12.0489 2.6714 11.9585L7.65748 9.73623ZM7.88645 14.0786L11.4908 12.4722L7.88645 10.8659L4.28218 12.4722L7.88645 14.0786ZM3.4629 13.3388V17.6627L7.32395 19.3835V15.0596L3.4629 13.3388Z" fill="url(#paint3_linear_35_722)"/>
<defs>
<linearGradient id="paint0_linear_35_722" x1="15.5737" y1="20.4227" x2="18.87" y2="16.7618" gradientUnits="userSpaceOnUse">
<stop stop-color="white"/>
<stop offset="1" stop-color="white"/>
</linearGradient>
<linearGradient id="paint1_linear_35_722" x1="10.8806" y1="19.9944" x2="14.1769" y2="16.3335" gradientUnits="userSpaceOnUse">
<stop stop-color="white"/>
<stop offset="1" stop-color="white"/>
</linearGradient>
<linearGradient id="paint2_linear_35_722" x1="22.1351" y1="10" x2="22.1351" y2="20" gradientUnits="userSpaceOnUse">
<stop stop-color="white"/>
<stop offset="1" stop-color="white"/>
</linearGradient>
<linearGradient id="paint3_linear_35_722" x1="7.88645" y1="10.25" x2="7.88645" y2="20.25" gradientUnits="userSpaceOnUse">
<stop stop-color="white"/>
<stop offset="1" stop-color="white"/>
</linearGradient>
</defs>
</svg>
