<svg width="46" height="25" viewBox="0 0 46 25" fill="none" xmlns="http://www.w3.org/2000/svg">
<path d="M40.3849 0.916092L22.9999 15.6231L5.61514 0.916092C5.3097 0.625653 4.9471 0.395271 4.54802 0.238086C4.14895 0.080902 3.72123 0 3.28927 0C2.4169 0 1.58026 0.329524 0.963406 0.916092C0.657969 1.20653 0.415682 1.55133 0.250381 1.93081C0.0850798 2.31028 0 2.71701 0 3.12775C0 3.53849 0.0850798 3.94521 0.250381 4.32469C0.415682 4.70417 0.657969 5.04897 0.963406 5.33941L20.6741 24.0823C20.9793 24.3732 21.3418 24.604 21.7409 24.7615C22.14 24.9189 22.5679 25 23 25C23.4321 25 23.86 24.9189 24.2591 24.7615C24.6582 24.604 25.0207 24.3732 25.3259 24.0823L45.0366 5.33941C45.342 5.04897 45.5843 4.70417 45.7496 4.32469C45.9149 3.94521 46 3.53849 46 3.12775C46 2.71701 45.9149 2.31028 45.7496 1.93081C45.5843 1.55133 45.342 1.20653 45.0366 0.916092C44.7312 0.625653 44.3686 0.395271 43.9695 0.238086C43.5704 0.080902 43.1427 0 42.7107 0C42.2788 0 41.8511 0.080902 41.452 0.238086C41.0529 0.395271 40.6903 0.625653 40.3849 0.916092Z" fill="white"/>
</svg>
