<svg width="2199" height="2320" viewBox="0 0 2199 2320" fill="none" xmlns="http://www.w3.org/2000/svg">
<g clip-path="url(#clip0_405_2075)">
<rect width="2198.58" height="2319.94" fill="white"/>
<rect width="2198.58" height="2319.94" fill="url(#paint0_linear_405_2075)"/>
<path opacity="0.01" fill-rule="evenodd" clip-rule="evenodd" d="M872.709 1678.48C804.921 1576.14 666.237 1516.55 652.59 1394.55C638.209 1265.99 696.594 1121.65 802.038 1046.7C904.523 973.862 1043.79 1024.22 1169.49 1027.17C1266.77 1029.45 1357.3 1040.21 1452.15 1061.97C1579.73 1091.24 1730.48 1078.49 1817.89 1175.92C1910.43 1279.07 1931.63 1434.41 1908.94 1571.12C1886.55 1706.03 1790.03 1810.69 1696.06 1910.05C1601.08 2010.47 1504.52 2136.76 1366.53 2144.65C1230.62 2152.42 1118.64 2042.17 1019.65 1948.72C943.217 1876.57 930.75 1766.11 872.709 1678.48Z" stroke="url(#paint1_linear_405_2075)" stroke-width="2"/>
<path opacity="0.0168067" fill-rule="evenodd" clip-rule="evenodd" d="M874.112 1655.25C808.121 1551.74 670.498 1489.74 658.982 1367.52C646.847 1238.73 707.742 1095.43 814.478 1022.34C918.219 951.295 1056.59 1004.07 1182.21 1009.22C1279.44 1013.2 1369.77 1025.54 1464.22 1048.95C1591.27 1080.44 1742.22 1070.32 1827.92 1169.26C1918.65 1274.01 1937.13 1429.7 1912.06 1565.99C1887.32 1700.49 1788.98 1803.44 1693.29 1901.15C1596.58 1999.9 1497.83 2124.49 1359.72 2129.97C1223.7 2135.36 1113.66 2023.17 1016.31 1928.01C941.153 1854.54 930.615 1743.88 874.112 1655.25Z" stroke="url(#paint2_linear_405_2075)" stroke-width="2"/>
<path opacity="0.0252101" fill-rule="evenodd" clip-rule="evenodd" d="M875.588 1632.21C811.413 1527.57 674.893 1463.17 665.512 1340.77C655.626 1211.79 719.013 1069.57 827.008 998.353C931.973 929.133 1069.4 984.317 1194.92 991.654C1292.06 997.333 1382.16 1011.24 1476.19 1036.3C1602.67 1070 1753.77 1062.52 1837.73 1162.94C1926.62 1269.26 1942.38 1425.25 1914.94 1561.08C1887.85 1695.13 1787.73 1796.35 1690.35 1892.37C1591.93 1989.42 1491.02 2112.26 1352.84 2115.33C1216.75 2118.35 1108.67 2004.26 1013.01 1907.42C939.14 1832.64 930.535 1721.81 875.588 1632.21Z" stroke="url(#paint3_linear_405_2075)" stroke-width="2"/>
<path opacity="0.0336134" fill-rule="evenodd" clip-rule="evenodd" d="M877.133 1609.37C814.794 1503.61 679.419 1436.85 672.176 1314.3C664.543 1185.17 730.402 1044.08 839.623 974.755C945.78 907.378 1082.22 964.952 1207.59 974.478C1304.63 981.851 1394.46 997.332 1488.04 1024.03C1613.92 1059.93 1765.13 1055.09 1847.32 1156.96C1934.34 1264.81 1947.38 1421.05 1917.57 1556.38C1888.14 1689.94 1786.28 1789.4 1687.23 1883.71C1587.14 1979.02 1484.1 2100.08 1345.88 2100.74C1209.75 2101.39 1103.69 1985.42 1009.73 1886.92C937.178 1810.87 930.509 1699.91 877.133 1609.37Z" stroke="url(#paint4_linear_405_2075)" stroke-width="2"/>
<path opacity="0.0420168" fill-rule="evenodd" clip-rule="evenodd" d="M878.743 1586.71C818.259 1479.89 684.07 1410.77 678.966 1288.12C673.588 1158.87 741.9 1018.95 852.314 951.544C959.631 886.03 1095.05 945.976 1220.23 957.689C1317.12 966.754 1406.67 983.801 1499.77 1012.12C1625 1050.22 1776.27 1048.01 1856.68 1151.31C1941.8 1260.66 1952.11 1417.11 1919.94 1551.9C1888.19 1684.92 1784.61 1782.58 1683.93 1875.15C1582.19 1968.7 1477.05 2087.95 1338.84 2086.19C1202.73 2084.46 1098.7 1966.67 1006.47 1866.54C935.262 1789.24 930.53 1678.18 878.743 1586.71Z" stroke="url(#paint5_linear_405_2075)" stroke-width="2"/>
<path opacity="0.0504202" fill-rule="evenodd" clip-rule="evenodd" d="M880.415 1564.25C821.805 1456.39 688.842 1384.94 685.88 1262.22C682.758 1132.89 753.501 994.189 865.076 928.721C973.519 865.089 1107.87 927.39 1232.83 941.286C1329.55 952.041 1418.79 970.647 1511.38 1000.59C1635.93 1040.87 1787.21 1041.3 1865.8 1145.98C1949 1256.8 1956.58 1413.41 1922.06 1547.61C1888 1680.06 1782.72 1775.9 1680.45 1866.7C1577.08 1958.46 1469.88 2075.85 1331.73 2071.69C1195.66 2067.58 1093.71 1947.99 1003.24 1846.27C933.39 1767.73 930.598 1656.61 880.415 1564.25Z" stroke="url(#paint6_linear_405_2075)" stroke-width="2"/>
<path opacity="0.0588235" fill-rule="evenodd" clip-rule="evenodd" d="M882.146 1541.99C825.427 1433.12 693.731 1359.36 692.911 1236.61C692.048 1107.25 765.201 969.797 877.9 906.286C987.438 844.557 1120.68 909.193 1245.38 925.268C1341.89 937.709 1430.8 957.87 1522.85 989.425C1646.68 1031.87 1797.93 1034.94 1874.68 1140.98C1955.93 1253.24 1960.78 1409.95 1923.92 1543.53C1887.55 1675.37 1780.62 1769.36 1676.78 1858.35C1571.83 1948.3 1462.6 2063.8 1324.54 2057.22C1188.56 2050.75 1088.71 1929.39 1000.03 1826.11C931.562 1746.36 930.709 1635.21 882.146 1541.99Z" stroke="url(#paint7_linear_405_2075)" stroke-width="2"/>
<path opacity="0.0672269" fill-rule="evenodd" clip-rule="evenodd" d="M883.933 1519.92C829.122 1410.08 698.734 1334.03 700.057 1211.28C701.451 1081.93 776.992 945.776 890.783 884.242C1001.38 824.434 1133.47 891.386 1257.88 909.634C1354.16 923.758 1442.69 945.468 1534.18 978.624C1657.25 1023.22 1808.43 1028.94 1883.32 1136.3C1962.6 1249.95 1964.7 1406.73 1925.53 1539.65C1886.86 1670.83 1778.3 1762.94 1672.92 1850.11C1566.42 1938.2 1455.19 2051.79 1317.26 2042.8C1181.42 2033.95 1083.71 1910.87 996.843 1806.06C929.775 1725.13 930.862 1613.97 883.933 1519.92Z" stroke="url(#paint8_linear_405_2075)" stroke-width="2"/>
<path opacity="0.0756303" fill-rule="evenodd" clip-rule="evenodd" d="M885.771 1498.05C832.886 1387.27 703.845 1308.96 707.31 1186.25C710.961 1056.94 788.866 922.128 903.714 862.589C1015.34 804.721 1146.24 873.967 1270.31 894.384C1366.33 910.186 1454.47 933.438 1545.37 968.185C1667.64 1014.93 1818.69 1023.28 1891.7 1131.93C1968.98 1246.95 1968.35 1403.74 1926.86 1535.95C1885.91 1666.44 1775.76 1756.64 1668.88 1841.96C1560.85 1928.18 1447.66 2039.8 1309.91 2028.41C1174.24 2017.19 1078.69 1892.43 993.67 1786.11C928.024 1704.03 931.052 1592.91 885.771 1498.05Z" stroke="url(#paint9_linear_405_2075)" stroke-width="2"/>
<path opacity="0.0840336" fill-rule="evenodd" clip-rule="evenodd" d="M887.657 1476.38C836.714 1364.7 709.059 1284.14 714.665 1161.51C720.572 1032.29 800.819 898.853 916.688 841.328C1029.31 785.416 1158.98 856.937 1282.67 879.516C1378.4 896.991 1466.13 921.778 1556.4 958.106C1677.84 1006.97 1828.72 1017.96 1899.82 1127.87C1975.09 1244.22 1971.72 1400.97 1927.93 1532.45C1884.71 1662.2 1773 1750.46 1664.64 1833.9C1555.13 1918.23 1440 2027.86 1302.48 2014.06C1167.03 2000.48 1073.67 1874.06 990.513 1766.28C926.31 1683.06 931.276 1572.01 887.657 1476.38Z" stroke="url(#paint10_linear_405_2075)" stroke-width="2"/>
<path opacity="0.092437" fill-rule="evenodd" clip-rule="evenodd" d="M889.589 1454.91C840.602 1342.35 714.373 1259.58 722.118 1137.07C730.28 1007.97 812.842 875.954 929.698 820.459C1043.27 766.521 1171.68 840.294 1294.96 865.029C1390.37 884.172 1477.65 910.486 1567.28 948.384C1687.84 999.364 1838.51 1012.98 1907.68 1124.11C1980.9 1241.76 1974.8 1398.43 1928.72 1529.12C1883.24 1658.1 1770.01 1744.4 1660.22 1825.93C1549.25 1908.34 1432.23 2015.94 1294.96 1999.75C1159.77 1983.8 1068.63 1855.78 987.369 1746.56C924.628 1662.23 931.531 1551.29 889.589 1454.91Z" stroke="url(#paint11_linear_405_2075)" stroke-width="2"/>
<path opacity="0.10084" fill-rule="evenodd" clip-rule="evenodd" d="M891.562 1433.64C844.548 1320.24 719.782 1235.28 729.664 1112.92C740.078 983.981 824.932 853.43 942.738 799.983C1057.24 748.036 1184.34 824.039 1307.17 850.921C1402.23 871.726 1489.04 899.559 1577.99 939.016C1697.64 992.092 1848.06 1008.34 1915.27 1120.66C1986.43 1239.57 1977.6 1396.11 1929.24 1525.97C1881.52 1654.14 1766.8 1738.45 1655.6 1818.05C1543.21 1898.51 1424.33 2004.05 1287.36 1985.47C1152.47 1967.16 1063.58 1837.57 984.238 1726.95C922.978 1641.54 931.817 1530.73 891.562 1433.64Z" stroke="url(#paint12_linear_405_2075)" stroke-width="2"/>
<path opacity="0.109244" fill-rule="evenodd" clip-rule="evenodd" d="M893.573 1412.57C848.545 1298.37 725.281 1211.24 737.297 1089.08C749.96 960.334 837.079 831.284 955.8 779.901C1071.19 729.96 1196.95 808.17 1319.28 837.191C1413.97 859.653 1500.28 888.996 1588.53 930C1707.24 985.156 1857.34 1004.02 1922.59 1117.5C1991.66 1237.64 1980.1 1393.99 1929.48 1523C1879.53 1650.31 1763.36 1732.6 1650.78 1810.26C1537.01 1888.74 1416.3 1992.19 1279.68 1971.22C1145.13 1950.56 1058.51 1819.44 981.116 1707.45C921.356 1620.99 932.127 1510.35 893.573 1412.57Z" stroke="url(#paint13_linear_405_2075)" stroke-width="2"/>
<path opacity="0.117647" fill-rule="evenodd" clip-rule="evenodd" d="M895.619 1391.7C852.59 1276.73 730.865 1187.47 745.012 1065.53C759.919 937.026 849.278 809.516 968.878 760.213C1085.12 712.294 1209.49 792.686 1331.31 823.838C1425.58 847.948 1511.37 878.794 1598.89 921.331C1716.62 978.551 1866.37 1000.04 1929.63 1114.63C1996.59 1235.96 1982.3 1392.09 1929.44 1520.19C1877.28 1646.61 1759.69 1726.86 1645.77 1802.54C1530.65 1879.02 1408.15 1980.36 1271.92 1957C1137.75 1934 1053.43 1801.38 978.001 1688.06C919.76 1600.57 932.46 1490.14 895.619 1391.7Z" stroke="url(#paint14_linear_405_2075)" stroke-width="2"/>
<path opacity="0.12605" fill-rule="evenodd" clip-rule="evenodd" d="M897.695 1371.03C856.679 1255.32 736.531 1163.95 752.803 1042.28C769.951 914.058 861.522 788.127 981.964 740.919C1099.03 695.035 1221.98 777.586 1343.23 810.859C1437.07 836.611 1522.3 868.949 1609.07 913.008C1725.78 972.273 1875.14 996.368 1936.38 1112.05C2001.22 1234.53 1984.21 1390.39 1929.12 1517.54C1874.76 1643.03 1755.78 1721.22 1640.57 1794.9C1524.12 1869.36 1399.87 1968.54 1264.07 1942.81C1130.32 1917.48 1048.34 1783.4 974.893 1668.79C918.187 1580.29 932.813 1470.09 897.695 1371.03Z" stroke="url(#paint15_linear_405_2075)" stroke-width="2"/>
<path opacity="0.134454" fill-rule="evenodd" clip-rule="evenodd" d="M899.8 1350.56C860.81 1234.16 742.274 1140.71 760.668 1019.33C780.051 891.431 873.805 767.118 995.052 722.019C1112.9 678.186 1234.39 762.869 1355.04 798.254C1448.42 825.64 1533.07 859.46 1619.06 905.026C1734.72 966.319 1883.63 993.017 1942.85 1109.75C2005.54 1233.34 1985.81 1388.88 1928.51 1515.05C1871.97 1639.58 1751.64 1715.68 1635.16 1787.34C1517.43 1859.75 1391.47 1956.75 1256.14 1928.66C1122.86 1900.99 1043.22 1765.5 971.789 1649.62C916.636 1560.15 933.183 1450.23 899.8 1350.56Z" stroke="url(#paint16_linear_405_2075)" stroke-width="2"/>
<path opacity="0.142857" fill-rule="evenodd" clip-rule="evenodd" d="M901.927 1330.3C864.975 1213.23 748.088 1117.73 768.597 996.693C790.21 869.147 886.119 746.489 1008.14 703.513C1126.73 661.743 1246.72 748.534 1366.74 786.019C1459.62 815.03 1543.67 850.323 1628.85 897.383C1743.42 960.685 1891.85 989.978 1949.02 1107.73C2009.54 1232.39 1987.1 1387.56 1927.61 1512.72C1868.9 1636.24 1747.27 1710.23 1629.55 1779.84C1510.58 1850.19 1382.95 1944.97 1248.13 1914.52C1115.34 1884.53 1038.08 1747.68 968.686 1630.57C915.104 1540.15 933.566 1430.53 901.927 1330.3Z" stroke="url(#paint17_linear_405_2075)" stroke-width="2"/>
<path opacity="0.151261" fill-rule="evenodd" clip-rule="evenodd" d="M904.075 1310.24C869.171 1192.55 753.97 1095.01 776.588 974.356C800.423 847.207 898.458 726.241 1021.21 685.402C1140.51 645.708 1258.97 734.579 1378.31 774.153C1470.68 804.781 1554.1 841.536 1638.44 890.075C1751.9 955.367 1899.78 987.246 1954.89 1105.98C2013.23 1231.68 1988.08 1386.43 1926.42 1510.53C1865.56 1633 1742.66 1704.86 1623.74 1772.41C1503.56 1840.67 1374.3 1933.22 1240.03 1900.41C1107.79 1868.11 1032.93 1729.93 965.584 1611.63C913.587 1520.28 933.96 1411.01 904.075 1310.24Z" stroke="url(#paint18_linear_405_2075)" stroke-width="2"/>
<path opacity="0.159664" fill-rule="evenodd" clip-rule="evenodd" d="M906.24 1290.38C873.395 1172.1 759.913 1072.57 784.634 952.325C810.684 825.611 910.816 706.375 1034.26 667.684C1154.24 630.078 1271.13 721.004 1389.76 762.654C1481.58 794.89 1564.35 833.094 1647.83 883.098C1760.12 950.36 1907.43 984.815 1960.46 1104.49C2016.6 1231.19 1988.75 1385.48 1924.93 1508.49C1861.95 1629.88 1737.81 1699.58 1617.73 1765.04C1496.38 1831.2 1365.52 1921.47 1231.84 1886.33C1100.18 1851.72 1027.75 1712.26 962.479 1592.8C912.085 1500.56 934.362 1391.65 906.24 1290.38Z" stroke="url(#paint19_linear_405_2075)" stroke-width="2"/>
<path opacity="0.168067" fill-rule="evenodd" clip-rule="evenodd" d="M908.419 1270.73C877.644 1151.89 765.916 1050.39 792.731 930.6C820.989 804.361 923.187 686.89 1047.28 650.359C1167.9 614.853 1283.19 707.805 1401.08 751.52C1492.32 785.352 1574.41 824.996 1657 876.449C1768.11 945.661 1914.79 982.681 1965.72 1103.26C2019.64 1230.92 1989.11 1384.71 1923.15 1506.58C1858.06 1626.85 1732.72 1694.38 1611.52 1757.73C1489.03 1821.76 1356.61 1909.74 1223.57 1872.27C1092.54 1835.37 1022.54 1694.66 959.372 1574.08C910.595 1480.98 934.769 1372.48 908.419 1270.73Z" stroke="url(#paint20_linear_405_2075)" stroke-width="2"/>
<path opacity="0.176471" fill-rule="evenodd" clip-rule="evenodd" d="M910.607 1251.28C881.91 1131.92 771.971 1028.49 800.873 909.183C831.329 783.456 935.561 667.787 1060.28 633.427C1181.5 600.032 1295.14 694.981 1412.25 740.747C1502.89 776.167 1584.27 817.237 1665.96 870.124C1775.84 941.264 1921.86 980.839 1970.67 1102.29C2022.36 1230.87 1989.14 1384.1 1921.07 1504.8C1853.88 1623.92 1727.39 1689.25 1605.1 1750.48C1481.51 1812.36 1347.58 1898.01 1215.21 1858.23C1084.84 1819.05 1017.32 1677.14 956.257 1555.47C909.113 1461.53 935.177 1353.47 910.607 1251.28Z" stroke="url(#paint21_linear_405_2075)" stroke-width="2"/>
<path opacity="0.184874" fill-rule="evenodd" clip-rule="evenodd" d="M912.801 1232.03C886.192 1112.19 778.074 1006.86 809.054 888.074C841.7 762.898 947.935 649.066 1073.23 616.888C1195.01 585.613 1306.99 682.531 1423.28 730.334C1513.28 767.33 1593.94 809.815 1674.69 864.119C1783.31 937.166 1928.61 979.283 1975.31 1101.57C2024.74 1231.03 1988.85 1383.66 1918.68 1503.15C1849.43 1621.08 1721.81 1684.19 1598.48 1743.28C1473.82 1802.99 1338.42 1886.29 1206.76 1844.21C1077.1 1802.75 1012.06 1659.69 953.135 1536.98C907.637 1442.23 935.584 1334.64 912.801 1232.03Z" stroke="url(#paint22_linear_405_2075)" stroke-width="2"/>
<path opacity="0.193277" fill-rule="evenodd" clip-rule="evenodd" d="M914.997 1212.99C890.484 1092.7 784.221 985.5 817.269 867.274C852.095 742.687 960.3 630.726 1086.14 600.74C1208.45 571.595 1318.71 670.453 1434.15 720.278C1523.5 758.839 1603.4 802.725 1683.19 858.43C1790.52 933.362 1935.07 978.008 1979.62 1101.09C2026.78 1231.4 1988.24 1383.37 1915.99 1501.62C1844.69 1618.33 1716 1679.2 1591.65 1736.12C1465.97 1793.66 1329.13 1874.58 1198.23 1830.2C1069.31 1786.49 1006.78 1642.32 950.004 1518.59C906.166 1423.07 935.986 1315.98 914.997 1212.99Z" stroke="url(#paint23_linear_405_2075)" stroke-width="2"/>
<path opacity="0.201681" fill-rule="evenodd" clip-rule="evenodd" d="M917.194 1194.15C894.783 1073.46 790.407 964.415 825.514 846.784C862.509 722.823 972.652 612.768 1099 584.982C1221.8 557.976 1330.32 658.744 1444.87 710.576C1533.53 750.691 1612.65 795.964 1691.46 853.053C1797.46 929.847 1941.21 977.009 1983.61 1100.85C2028.49 1231.96 1987.3 1383.24 1913 1500.21C1839.68 1615.65 1709.93 1674.27 1584.61 1729.02C1457.95 1784.35 1319.72 1862.87 1189.61 1816.21C1061.47 1770.26 1001.47 1625.02 946.861 1500.32C904.698 1404.04 936.382 1297.49 917.194 1194.15Z" stroke="url(#paint24_linear_405_2075)" stroke-width="2"/>
<path opacity="0.210084" fill-rule="evenodd" clip-rule="evenodd" d="M919.385 1175.52C899.084 1054.45 796.627 943.604 833.781 826.603C872.934 703.307 984.981 595.191 1111.79 569.614C1235.04 544.756 1341.79 647.402 1455.42 701.225C1543.36 742.881 1621.69 789.528 1699.48 847.984C1804.13 926.616 1947.03 976.28 1987.26 1100.84C2029.85 1232.71 1986.03 1383.25 1909.7 1498.91C1834.37 1613.06 1703.62 1669.4 1577.36 1721.95C1449.76 1775.06 1310.18 1851.16 1180.91 1802.24C1053.59 1754.06 996.128 1607.79 943.704 1482.16C903.227 1385.16 936.766 1279.18 919.385 1175.52Z" stroke="url(#paint25_linear_405_2075)" stroke-width="2"/>
<path opacity="0.218487" fill-rule="evenodd" clip-rule="evenodd" d="M921.567 1157.09C903.383 1035.68 802.876 923.067 842.066 806.733C883.365 684.139 997.282 577.994 1124.52 554.635C1248.19 531.931 1353.12 636.425 1465.8 692.223C1553 735.408 1630.5 783.415 1707.26 843.219C1810.52 923.666 1952.54 975.816 1990.59 1101.06C2030.86 1233.66 1984.42 1383.41 1906.09 1497.72C1828.78 1610.53 1697.07 1664.58 1569.91 1714.92C1441.4 1765.8 1300.51 1839.45 1172.11 1788.28C1045.65 1737.88 990.755 1590.63 940.532 1464.11C901.754 1366.41 937.137 1261.04 921.567 1157.09Z" stroke="url(#paint26_linear_405_2075)" stroke-width="2"/>
<path opacity="0.226891" fill-rule="evenodd" clip-rule="evenodd" d="M923.739 1138.86C907.676 1017.16 809.15 902.806 850.364 787.173C893.796 665.318 1009.55 561.178 1137.17 540.043C1261.22 519.501 1364.32 625.81 1476 683.566C1562.44 728.266 1639.08 777.618 1714.79 838.754C1816.63 920.99 1957.72 975.611 1993.57 1101.5C2031.53 1234.78 1982.48 1383.7 1902.16 1496.62C1822.9 1608.07 1690.27 1659.81 1562.25 1707.92C1432.86 1756.55 1290.71 1827.73 1163.23 1774.33C1037.67 1721.73 985.349 1573.55 937.342 1446.17C900.275 1347.81 937.492 1243.07 923.739 1138.86Z" stroke="url(#paint27_linear_405_2075)" stroke-width="2"/>
<path opacity="0.235294" fill-rule="evenodd" clip-rule="evenodd" d="M925.896 1120.84C911.959 998.876 815.444 882.819 858.67 767.924C904.222 646.846 1021.77 544.741 1149.75 525.837C1274.13 507.463 1375.36 615.555 1486.02 675.251C1571.66 721.453 1647.44 772.135 1722.07 834.583C1822.46 918.584 1962.56 975.659 1996.22 1102.16C2031.84 1236.07 1980.21 1384.11 1897.93 1495.62C1816.73 1605.66 1683.21 1655.09 1554.38 1700.96C1424.16 1747.32 1280.79 1816.01 1154.26 1760.39C1029.64 1705.61 979.91 1556.53 934.134 1428.33C898.789 1329.35 937.828 1225.27 925.896 1120.84Z" stroke="url(#paint28_linear_405_2075)" stroke-width="2"/>
<path opacity="0.243697" fill-rule="evenodd" clip-rule="evenodd" d="M928.033 1103.02C916.227 980.832 821.752 863.109 866.977 748.985C914.635 628.721 1033.95 528.684 1162.24 512.015C1286.92 495.815 1386.25 605.657 1495.85 667.276C1580.67 714.965 1655.55 766.962 1729.08 830.702C1827.99 916.443 1967.08 975.954 1998.52 1103.02C2031.8 1237.54 1977.59 1384.65 1893.38 1494.71C1810.27 1603.32 1675.91 1650.41 1546.29 1694.02C1415.29 1738.1 1270.74 1804.28 1145.2 1746.46C1021.55 1689.51 974.435 1539.59 930.903 1410.61C897.291 1311.02 938.141 1207.64 928.033 1103.02Z" stroke="url(#paint29_linear_405_2075)" stroke-width="2"/>
<path opacity="0.252101" fill-rule="evenodd" clip-rule="evenodd" d="M930.148 1085.4C920.476 963.028 828.07 843.675 875.28 730.357C925.03 610.943 1046.07 513.003 1174.63 498.577C1299.58 484.555 1396.97 596.114 1505.48 659.636C1589.46 708.798 1663.42 762.094 1735.82 827.108C1833.22 914.562 1971.25 976.491 2000.47 1104.09C2031.4 1239.17 1974.63 1385.31 1888.51 1493.88C1803.52 1601.02 1668.36 1645.76 1538 1687.1C1406.25 1728.89 1260.57 1792.53 1136.05 1732.53C1013.42 1673.44 968.924 1522.72 927.649 1393C895.781 1292.84 938.429 1190.18 930.148 1085.4Z" stroke="url(#paint30_linear_405_2075)" stroke-width="2"/>
<path opacity="0.260504" fill-rule="evenodd" clip-rule="evenodd" d="M932.237 1067.99C924.703 945.464 834.394 824.516 883.574 712.04C935.4 593.512 1058.13 497.7 1186.92 485.519C1312.1 473.68 1407.53 586.922 1514.91 652.328C1598.02 702.949 1671.04 757.527 1742.3 823.795C1838.16 912.935 1975.08 977.264 2002.07 1105.35C2030.64 1240.95 1971.32 1386.08 1883.32 1493.13C1796.47 1598.77 1660.56 1641.14 1529.49 1680.21C1397.04 1719.69 1250.27 1780.78 1126.82 1718.62C1005.23 1657.39 963.375 1505.92 924.371 1375.49C894.255 1274.79 938.688 1172.9 932.237 1067.99Z" stroke="url(#paint31_linear_405_2075)" stroke-width="2"/>
<path opacity="0.268908" fill-rule="evenodd" clip-rule="evenodd" d="M934.298 1050.78C928.903 928.14 840.718 805.634 891.854 694.034C945.741 576.428 1070.13 482.773 1199.11 472.841C1324.47 463.188 1417.91 578.078 1524.14 645.349C1606.35 697.412 1678.4 753.257 1748.5 820.758C1842.78 911.557 1978.57 978.266 2003.32 1106.8C2029.51 1242.88 1967.67 1386.96 1877.82 1492.45C1789.14 1596.56 1652.5 1636.55 1520.78 1673.33C1387.65 1710.49 1239.84 1769.01 1117.49 1704.7C996.995 1641.36 957.788 1489.18 921.066 1358.1C892.712 1256.89 938.917 1155.78 934.298 1050.78Z" stroke="url(#paint32_linear_405_2075)" stroke-width="2"/>
<path opacity="0.277311" fill-rule="evenodd" clip-rule="evenodd" d="M936.324 1033.77C933.071 911.054 847.038 787.028 900.113 676.337C956.045 559.69 1082.05 468.219 1211.18 460.54C1336.7 453.077 1428.12 569.58 1533.15 638.694C1614.44 692.185 1685.51 749.278 1754.42 817.992C1847.1 910.423 1981.7 979.492 2004.2 1108.44C2028.02 1244.96 1963.68 1387.93 1871.99 1491.84C1781.51 1594.39 1644.2 1631.99 1511.85 1666.46C1378.1 1701.29 1229.28 1757.22 1108.08 1690.79C988.705 1625.36 952.16 1472.51 917.731 1340.81C891.148 1239.12 939.11 1138.84 936.324 1033.77Z" stroke="url(#paint33_linear_405_2075)" stroke-width="2"/>
<path opacity="0.285714" fill-rule="evenodd" clip-rule="evenodd" d="M938.315 1016.96C937.203 894.207 853.348 768.698 908.347 658.95C966.306 543.297 1093.89 454.039 1223.14 448.615C1348.76 443.344 1438.13 561.425 1541.95 632.361C1622.29 687.262 1692.35 745.587 1760.05 815.493C1851.11 909.528 1984.48 980.935 2004.73 1110.26C2026.16 1247.17 1959.33 1389 1865.85 1491.29C1773.59 1592.25 1635.64 1627.44 1502.71 1659.6C1368.37 1692.09 1218.6 1745.42 1098.58 1676.88C980.363 1609.37 946.491 1455.91 914.366 1323.63C889.562 1221.49 939.267 1122.06 938.315 1016.96Z" stroke="url(#paint34_linear_405_2075)" stroke-width="2"/>
<path opacity="0.294118" fill-rule="evenodd" clip-rule="evenodd" d="M940.265 1000.35C941.296 877.597 859.644 750.644 916.551 641.872C976.519 527.248 1105.64 440.231 1234.96 437.063C1360.66 433.985 1447.96 553.608 1550.52 626.345C1629.89 682.64 1698.92 742.179 1765.39 813.256C1854.79 908.866 1986.9 982.59 2004.89 1112.25C2023.93 1249.51 1954.63 1390.15 1859.38 1490.8C1765.37 1590.13 1626.83 1622.91 1493.36 1652.74C1358.47 1682.88 1207.8 1733.59 1088.99 1662.96C971.968 1593.41 940.78 1439.38 910.968 1306.56C887.95 1204 939.383 1105.45 940.265 1000.35Z" stroke="url(#paint35_linear_405_2075)" stroke-width="2"/>
<path opacity="0.302521" fill-rule="evenodd" clip-rule="evenodd" d="M942.174 983.941C945.347 861.224 865.923 732.865 924.719 625.103C986.678 511.543 1117.3 426.793 1246.66 425.883C1372.39 424.998 1457.59 546.127 1558.86 620.643C1637.24 678.314 1705.22 739.049 1770.44 811.275C1858.16 908.43 1988.96 984.449 2004.68 1114.4C2021.32 1251.97 1949.58 1391.38 1852.59 1490.35C1756.86 1588.03 1617.77 1618.39 1483.8 1645.88C1348.4 1673.67 1196.87 1721.73 1079.31 1649.05C963.521 1577.46 935.026 1422.91 907.537 1289.59C886.312 1186.65 939.457 1089.01 942.174 983.941Z" stroke="url(#paint36_linear_405_2075)" stroke-width="2"/>
<path opacity="0.310924" fill-rule="evenodd" clip-rule="evenodd" d="M944.034 967.73C949.348 845.087 872.176 715.361 932.844 608.642C996.776 496.181 1128.85 413.723 1258.21 415.07C1383.94 416.381 1467.01 538.977 1566.97 615.25C1644.33 674.28 1711.24 736.192 1775.18 809.546C1861.2 908.217 1990.65 986.507 2004.1 1116.71C2018.34 1254.55 1944.18 1392.69 1845.47 1489.95C1748.05 1585.94 1608.45 1613.87 1474.03 1639.02C1338.16 1664.44 1185.81 1709.86 1069.54 1635.13C955.02 1561.53 929.226 1406.51 904.068 1272.73C884.643 1169.43 939.484 1072.74 944.034 967.73Z" stroke="url(#paint37_linear_405_2075)" stroke-width="2"/>
<path opacity="0.319328" fill-rule="evenodd" clip-rule="evenodd" d="M945.844 951.716C953.298 829.185 878.402 698.132 940.923 592.488C1006.81 481.16 1140.3 401.019 1269.62 404.624C1395.3 408.129 1476.22 532.156 1574.83 610.162C1651.15 670.533 1716.97 733.604 1779.63 808.062C1863.91 908.219 1991.97 988.757 2003.15 1119.18C2014.98 1257.25 1938.42 1394.07 1838.03 1489.59C1738.95 1583.87 1598.88 1609.36 1464.04 1632.16C1327.76 1655.2 1174.63 1697.95 1059.68 1621.2C946.465 1545.62 923.38 1390.17 900.561 1255.97C882.942 1152.35 939.462 1056.63 945.844 951.716Z" stroke="url(#paint38_linear_405_2075)" stroke-width="2"/>
<path opacity="0.327731" fill-rule="evenodd" clip-rule="evenodd" d="M947.6 935.9C957.191 813.517 884.594 681.177 948.949 576.64C1016.77 466.479 1151.64 388.68 1280.87 394.542C1406.48 400.239 1485.22 525.66 1582.45 605.375C1657.71 667.069 1722.42 731.278 1783.76 806.819C1866.28 908.432 1992.92 991.192 2001.82 1121.79C2011.24 1260.04 1932.3 1395.51 1830.26 1489.27C1729.56 1581.8 1589.06 1604.84 1453.84 1625.28C1317.18 1645.94 1163.33 1686.01 1049.74 1607.27C937.856 1529.72 917.488 1373.9 897.014 1239.32C881.206 1135.4 939.388 1040.69 947.6 935.9Z" stroke="url(#paint39_linear_405_2075)" stroke-width="2"/>
<path opacity="0.336134" fill-rule="evenodd" clip-rule="evenodd" d="M949.299 920.279C961.025 798.083 890.748 664.496 956.918 561.098C1026.65 452.137 1162.86 376.704 1291.97 384.82C1417.45 392.709 1494 519.485 1589.83 600.884C1663.99 663.883 1727.57 729.212 1787.59 805.811C1868.32 908.849 1993.5 993.806 2000.12 1124.54C2007.12 1262.94 1925.83 1397 1822.17 1488.97C1719.86 1579.72 1578.99 1600.31 1443.43 1618.39C1306.43 1636.66 1151.91 1674.04 1039.7 1593.33C929.193 1513.84 911.547 1357.68 893.425 1222.77C879.433 1118.59 939.259 1024.91 949.299 920.279Z" stroke="url(#paint40_linear_405_2075)" stroke-width="2"/>
<path opacity="0.344538" fill-rule="evenodd" clip-rule="evenodd" d="M950.938 904.854C964.795 782.88 896.86 648.088 964.824 545.86C1036.45 438.133 1173.95 365.089 1302.9 375.457C1428.23 385.534 1502.55 513.627 1596.94 596.686C1670 660.969 1732.43 727.398 1791.1 805.033C1870.02 909.464 1993.7 996.593 1998.03 1127.42C2002.62 1265.92 1919 1398.55 1813.75 1488.69C1709.88 1577.65 1568.67 1595.77 1432.81 1611.48C1295.51 1627.36 1140.36 1662.04 1029.58 1579.38C920.476 1497.98 905.558 1341.53 889.794 1206.32C877.622 1101.92 939.074 1009.29 950.938 904.854Z" stroke="url(#paint41_linear_405_2075)" stroke-width="2"/>
<path opacity="0.352941" fill-rule="evenodd" clip-rule="evenodd" d="M952.513 889.622C968.496 767.909 902.924 631.951 972.662 530.926C1046.15 424.464 1184.91 353.831 1313.66 366.448C1438.79 378.711 1510.87 508.081 1603.8 592.775C1675.72 658.324 1736.98 725.832 1794.29 804.479C1871.37 910.272 1993.51 999.546 1995.56 1130.43C1997.73 1268.99 1911.81 1400.14 1805 1488.42C1699.59 1575.56 1558.09 1591.21 1421.98 1604.55C1284.42 1618.03 1128.69 1650 1019.37 1565.42C911.704 1482.12 899.519 1325.44 886.116 1189.97C875.768 1085.38 938.828 993.834 952.513 889.622Z" stroke="url(#paint42_linear_405_2075)" stroke-width="2"/>
<path opacity="0.361345" fill-rule="evenodd" clip-rule="evenodd" d="M954.02 874.583C972.125 753.167 908.936 616.086 980.426 516.293C1055.76 411.13 1195.74 342.93 1324.24 357.792C1449.14 372.236 1518.95 502.845 1610.38 589.148C1681.15 655.942 1741.23 724.509 1797.15 804.144C1872.38 911.266 1992.94 1002.66 1992.71 1133.56C1992.46 1272.13 1904.26 1401.76 1795.93 1488.17C1689.02 1573.45 1547.26 1586.64 1410.94 1597.6C1273.17 1608.68 1116.9 1637.92 1009.07 1551.44C902.876 1466.28 893.428 1309.41 882.392 1173.73C873.871 1068.97 938.518 978.54 954.02 874.583Z" stroke="url(#paint43_linear_405_2075)" stroke-width="2"/>
<path opacity="0.369748" fill-rule="evenodd" clip-rule="evenodd" d="M955.457 859.735C975.678 738.654 914.891 600.491 988.112 501.96C1065.27 398.129 1206.41 332.381 1334.64 349.484C1459.27 366.106 1526.79 497.913 1616.7 585.799C1686.29 653.818 1745.16 723.422 1799.69 804.022C1873.04 912.44 1991.98 1005.92 1989.47 1136.8C1986.8 1275.35 1896.36 1403.42 1786.53 1487.92C1678.14 1571.33 1536.18 1582.03 1399.69 1590.61C1261.74 1599.29 1104.99 1625.8 998.69 1537.45C893.995 1450.45 887.285 1293.44 878.619 1157.59C871.928 1052.69 938.143 963.406 955.457 859.735Z" stroke="url(#paint44_linear_405_2075)" stroke-width="2"/>
<path opacity="0.378151" fill-rule="evenodd" clip-rule="evenodd" d="M956.819 845.078C979.15 724.368 920.784 585.165 995.714 487.927C1074.68 385.458 1216.94 322.184 1344.85 341.522C1469.17 360.317 1534.38 493.282 1622.74 582.723C1691.14 651.946 1748.78 722.568 1801.9 804.107C1873.34 913.789 1990.64 1009.33 1985.84 1140.14C1980.75 1278.63 1888.09 1405.1 1776.8 1487.68C1666.98 1569.17 1524.85 1577.4 1388.23 1583.6C1250.15 1589.86 1092.96 1613.63 988.218 1523.45C885.057 1434.63 881.089 1277.53 874.795 1141.54C869.935 1036.55 937.699 948.431 956.819 845.078Z" stroke="url(#paint45_linear_405_2075)" stroke-width="2"/>
<path opacity="0.386555" fill-rule="evenodd" clip-rule="evenodd" d="M958.104 830.609C982.538 710.307 926.61 570.107 1003.23 474.192C1083.96 373.116 1227.31 312.335 1354.87 333.902C1478.84 354.864 1541.71 488.947 1628.51 579.917C1695.68 650.323 1752.09 721.94 1803.77 804.393C1873.29 915.305 1988.9 1012.88 1981.81 1143.59C1974.31 1281.96 1879.46 1406.8 1766.75 1487.42C1655.52 1566.99 1513.26 1572.73 1376.56 1576.55C1238.39 1580.4 1080.81 1601.42 977.659 1509.42C876.064 1418.82 874.838 1261.67 870.918 1125.6C867.891 1020.54 937.183 933.613 958.104 830.609Z" stroke="url(#paint46_linear_405_2075)" stroke-width="2"/>
<path opacity="0.394958" fill-rule="evenodd" clip-rule="evenodd" d="M959.308 816.328C985.838 696.471 932.366 555.316 1010.64 460.753C1093.13 361.102 1237.52 302.831 1364.68 326.621C1488.27 349.743 1548.79 484.903 1633.98 577.374C1699.92 648.942 1755.06 721.532 1805.3 804.875C1872.87 916.983 1986.76 1016.56 1977.4 1147.13C1967.49 1285.35 1870.46 1408.51 1756.37 1487.15C1643.76 1564.77 1501.43 1568.03 1364.68 1569.45C1226.47 1570.9 1068.55 1589.16 967.013 1495.38C867.015 1403.02 868.532 1245.87 866.987 1109.75C865.795 1004.65 936.592 918.951 959.308 816.328Z" stroke="url(#paint47_linear_405_2075)" stroke-width="2"/>
<path opacity="0.403361" fill-rule="evenodd" clip-rule="evenodd" d="M960.428 802.233C989.046 682.857 938.045 540.79 1017.96 447.608C1102.18 349.411 1247.56 293.67 1374.28 319.675C1497.45 344.951 1555.6 481.146 1639.17 575.09C1703.85 647.798 1757.72 721.339 1806.49 805.546C1872.1 918.817 1984.23 1020.37 1972.59 1150.75C1960.27 1288.78 1861.11 1410.22 1745.66 1486.87C1631.72 1562.5 1489.35 1563.28 1352.59 1562.32C1214.38 1561.35 1056.16 1576.86 956.281 1481.32C857.91 1387.22 862.169 1230.13 863 1094C863.642 988.895 935.925 904.444 960.428 802.233Z" stroke="url(#paint48_linear_405_2075)" stroke-width="2"/>
<path opacity="0.411765" fill-rule="evenodd" clip-rule="evenodd" d="M961.462 788.323C992.16 669.465 943.646 526.529 1025.18 434.755C1111.09 338.044 1257.43 284.848 1383.68 313.061C1506.38 340.483 1562.15 477.672 1644.07 573.06C1707.47 646.885 1760.04 721.356 1807.34 806.401C1870.96 920.799 1981.3 1024.29 1967.39 1154.45C1952.66 1292.24 1851.4 1411.94 1734.62 1486.55C1619.38 1560.19 1477.02 1558.49 1340.3 1555.14C1202.13 1551.75 1043.66 1564.5 945.464 1467.23C848.75 1371.43 855.75 1214.44 858.957 1078.34C861.434 973.267 935.179 890.09 961.462 788.323Z" stroke="url(#paint49_linear_405_2075)" stroke-width="2"/>
<path opacity="0.420168" fill-rule="evenodd" clip-rule="evenodd" d="M962.405 774.595C995.172 656.291 949.16 512.53 1032.28 422.194C1119.87 326.996 1267.11 276.363 1392.85 306.775C1515.06 336.334 1568.42 474.475 1648.66 571.278C1710.76 646.199 1762.03 721.576 1807.84 807.433C1869.45 922.925 1977.97 1028.33 1961.79 1158.22C1944.66 1295.74 1841.32 1413.65 1723.26 1486.21C1606.75 1557.83 1464.44 1553.64 1327.8 1547.91C1189.71 1542.11 1031.05 1552.09 934.561 1453.12C839.533 1355.65 849.273 1198.8 854.854 1062.78C859.164 957.766 934.35 875.888 962.405 774.595Z" stroke="url(#paint50_linear_405_2075)" stroke-width="2"/>
<path opacity="0.428571" fill-rule="evenodd" clip-rule="evenodd" d="M963.254 761.049C998.081 643.335 954.585 498.793 1039.27 409.921C1128.51 316.267 1276.61 268.21 1401.8 300.812C1523.47 332.5 1574.42 471.552 1652.96 569.74C1713.74 645.733 1763.69 721.993 1807.98 808.637C1867.57 925.186 1974.24 1032.47 1955.79 1162.06C1936.26 1299.25 1830.88 1415.35 1711.58 1485.84C1593.83 1555.41 1451.62 1548.74 1315.1 1540.62C1177.13 1532.41 1018.32 1539.62 923.572 1438.99C830.261 1339.87 842.736 1183.21 850.69 1047.32C856.832 942.39 933.435 861.837 963.254 761.049Z" stroke="url(#paint51_linear_405_2075)" stroke-width="2"/>
<path opacity="0.436975" fill-rule="evenodd" clip-rule="evenodd" d="M964.008 747.683C1000.88 630.594 959.917 485.316 1046.14 397.935C1137 305.852 1285.92 260.388 1410.52 295.17C1531.62 328.976 1580.13 468.896 1656.94 568.44C1716.39 645.482 1765 722.602 1807.78 810.006C1865.32 927.577 1970.1 1036.7 1949.39 1165.95C1927.47 1302.79 1820.08 1417.02 1699.57 1485.42C1580.63 1552.93 1438.55 1543.77 1302.2 1533.27C1164.39 1522.66 1005.47 1527.1 912.5 1424.82C820.933 1324.09 836.14 1167.68 846.465 1031.94C854.437 927.139 932.435 847.935 964.008 747.683Z" stroke="url(#paint52_linear_405_2075)" stroke-width="2"/>
<path opacity="0.445378" fill-rule="evenodd" clip-rule="evenodd" d="M964.661 734.495C1003.57 618.068 965.149 472.096 1052.88 386.233C1145.34 295.75 1295.03 252.892 1419 289.843C1539.49 325.758 1585.56 466.503 1660.62 567.372C1718.71 645.44 1765.97 723.397 1807.21 811.534C1862.7 930.092 1965.56 1041.03 1942.6 1169.9C1918.29 1306.33 1808.93 1418.67 1687.23 1484.96C1567.13 1550.38 1425.24 1538.74 1289.09 1525.87C1151.48 1512.85 992.516 1514.52 901.343 1410.63C811.547 1308.32 829.482 1152.2 842.174 1016.66C851.974 912.011 931.342 834.181 964.661 734.495Z" stroke="url(#paint53_linear_405_2075)" stroke-width="2"/>
<path opacity="0.453782" fill-rule="evenodd" clip-rule="evenodd" d="M965.211 721.483C1006.15 605.752 970.278 459.132 1059.5 374.814C1153.52 285.958 1303.93 245.719 1427.24 284.828C1547.09 322.84 1590.69 464.368 1663.98 566.532C1720.7 645.602 1766.59 724.372 1806.29 813.215C1859.7 932.723 1960.61 1045.44 1935.4 1173.89C1908.72 1309.87 1797.41 1420.29 1674.57 1484.44C1553.35 1547.76 1411.68 1533.65 1275.78 1518.4C1138.42 1502.98 979.449 1501.87 890.102 1396.41C802.106 1292.55 822.763 1136.76 837.819 1001.47C849.443 897.005 930.158 820.572 965.211 721.483Z" stroke="url(#paint54_linear_405_2075)" stroke-width="2"/>
<path opacity="0.462185" fill-rule="evenodd" clip-rule="evenodd" d="M965.654 708.645C1008.61 593.647 975.3 446.423 1065.98 363.675C1161.53 276.474 1312.63 238.865 1435.23 280.121C1554.4 320.218 1595.52 462.486 1667.02 565.913C1722.35 645.961 1766.86 725.52 1805.01 815.043C1856.32 935.464 1955.24 1049.93 1927.8 1177.92C1898.75 1313.41 1785.53 1421.87 1661.59 1483.87C1539.29 1545.06 1397.89 1528.48 1262.27 1510.86C1125.2 1493.05 966.271 1489.16 878.778 1382.16C792.608 1276.78 815.981 1121.37 833.395 986.364C846.842 882.121 928.878 807.108 965.654 708.645Z" stroke="url(#paint55_linear_405_2075)" stroke-width="2"/>
<path opacity="0.470588" fill-rule="evenodd" clip-rule="evenodd" d="M965.989 695.98C1010.94 581.749 980.21 433.967 1072.32 352.813C1169.38 267.293 1321.11 232.328 1442.98 275.716C1561.43 317.888 1600.06 460.851 1669.74 565.511C1723.67 646.512 1766.78 726.835 1803.36 817.01C1852.56 938.309 1949.47 1054.48 1919.8 1181.97C1888.38 1316.94 1773.29 1423.41 1648.29 1483.23C1524.94 1542.28 1383.85 1523.23 1248.55 1503.25C1111.82 1483.05 952.984 1476.39 867.372 1367.88C783.054 1261.01 809.135 1106.03 828.904 971.348C844.167 867.356 927.5 793.786 965.989 695.98Z" stroke="url(#paint56_linear_405_2075)" stroke-width="2"/>
<path opacity="0.478992" fill-rule="evenodd" clip-rule="evenodd" d="M966.213 683.486C1013.15 570.057 985.005 421.76 1078.51 342.227C1177.05 258.414 1329.37 226.102 1450.46 271.611C1568.16 315.843 1604.29 459.458 1672.13 565.318C1724.64 647.249 1766.34 728.312 1801.34 819.112C1848.42 941.251 1943.29 1059.09 1911.4 1186.05C1877.63 1320.45 1760.7 1424.89 1634.67 1482.53C1510.3 1539.41 1369.57 1517.91 1234.65 1495.56C1098.29 1472.98 939.59 1463.55 855.885 1353.56C773.445 1245.23 802.227 1090.74 824.343 956.42C841.419 852.709 926.022 780.605 966.213 683.486Z" stroke="url(#paint57_linear_405_2075)" stroke-width="2"/>
<path opacity="0.487395" fill-rule="evenodd" clip-rule="evenodd" d="M966.321 671.16C1015.23 558.568 989.677 409.803 1084.56 331.913C1184.55 249.833 1337.4 220.184 1457.68 267.799C1574.59 314.079 1608.21 458.303 1674.2 565.331C1725.27 648.165 1765.55 729.943 1798.95 821.34C1843.89 944.283 1936.69 1063.76 1902.59 1190.14C1866.48 1323.93 1747.74 1426.32 1620.74 1481.74C1495.39 1536.45 1355.05 1512.49 1220.54 1487.8C1084.6 1462.84 926.088 1450.64 844.315 1339.21C763.778 1229.46 795.252 1075.49 819.709 941.577C838.592 838.18 924.442 767.563 966.321 671.16Z" stroke="url(#paint58_linear_405_2075)" stroke-width="2"/>
<path opacity="0.495798" fill-rule="evenodd" clip-rule="evenodd" d="M966.311 659.001C1017.18 547.28 994.225 398.091 1090.45 321.869C1191.86 241.546 1345.21 214.57 1464.64 264.277C1580.72 312.59 1611.82 457.379 1675.93 565.542C1725.54 649.255 1764.39 731.724 1796.2 823.69C1838.98 947.398 1929.68 1068.48 1893.38 1194.24C1854.94 1327.38 1734.43 1427.68 1606.48 1480.88C1480.2 1533.39 1340.3 1506.99 1206.24 1479.95C1070.75 1452.63 912.48 1437.66 832.665 1324.82C754.056 1213.68 788.212 1060.28 815.002 926.818C835.687 823.766 922.756 754.659 966.311 659.001Z" stroke="url(#paint59_linear_405_2075)" stroke-width="2"/>
<path opacity="0.504202" fill-rule="evenodd" clip-rule="evenodd" d="M966.181 647.007C1018.99 536.19 998.644 386.624 1096.19 312.093C1198.98 233.552 1352.78 209.255 1471.32 261.04C1586.54 311.371 1615.11 456.681 1677.32 565.946C1725.46 650.512 1762.87 733.647 1793.07 826.154C1833.69 950.59 1922.26 1073.24 1883.77 1198.35C1843.01 1330.8 1720.77 1428.97 1591.91 1479.94C1464.73 1530.23 1325.31 1501.39 1191.75 1472.02C1056.75 1442.33 898.768 1424.61 820.934 1310.39C744.277 1197.9 781.105 1045.12 810.22 912.142C832.701 809.467 920.962 741.89 966.181 647.007Z" stroke="url(#paint60_linear_405_2075)" stroke-width="2"/>
<path opacity="0.512605" fill-rule="evenodd" clip-rule="evenodd" d="M965.927 635.175C1020.67 525.297 1002.93 375.398 1101.76 302.581C1205.91 225.846 1360.1 204.237 1477.73 258.082C1592.05 310.417 1618.08 456.203 1678.37 566.538C1725.03 651.931 1760.98 735.706 1789.56 828.726C1828 953.851 1914.42 1078.03 1873.75 1202.45C1830.69 1334.16 1706.76 1430.19 1577.02 1478.9C1448.99 1526.97 1310.09 1495.7 1177.06 1464C1042.61 1431.96 884.954 1411.48 809.125 1295.92C734.443 1182.11 773.932 1030 805.363 897.547C829.632 795.281 919.06 729.254 965.927 635.175Z" stroke="url(#paint61_linear_405_2075)" stroke-width="2"/>
<path opacity="0.521008" fill-rule="evenodd" clip-rule="evenodd" d="M965.547 623.503C1022.19 514.597 1007.08 364.411 1107.16 293.33C1212.63 218.424 1367.18 199.51 1483.85 255.4C1597.24 309.722 1620.72 455.94 1679.08 567.31C1724.25 653.505 1758.72 737.894 1785.68 831.399C1821.93 957.176 1906.17 1082.84 1863.33 1206.53C1817.98 1337.48 1692.39 1431.33 1561.82 1477.76C1432.97 1523.59 1294.64 1489.9 1162.18 1455.89C1028.31 1421.51 871.037 1398.28 797.237 1281.41C724.552 1166.31 766.69 1014.91 800.428 883.033C826.478 781.206 917.044 716.75 965.547 623.503Z" stroke="url(#paint62_linear_405_2075)" stroke-width="2"/>
<path opacity="0.529412" fill-rule="evenodd" clip-rule="evenodd" d="M965.037 611.989C1023.58 504.088 1011.08 353.662 1112.39 284.338C1219.15 211.284 1374.01 195.07 1489.69 252.988C1602.11 309.28 1623.04 455.886 1679.44 568.258C1723.1 655.227 1756.1 740.206 1781.41 834.166C1815.47 960.558 1897.5 1087.67 1852.51 1210.6C1804.88 1340.73 1677.67 1432.38 1546.31 1476.53C1416.68 1520.09 1278.96 1484 1147.11 1447.68C1013.86 1410.97 857.02 1385 785.271 1266.86C714.606 1150.51 759.379 999.871 795.414 868.598C823.237 767.241 914.915 704.375 965.037 611.989Z" stroke="url(#paint63_linear_405_2075)" stroke-width="2"/>
<path opacity="0.537815" fill-rule="evenodd" clip-rule="evenodd" d="M964.395 600.631C1024.81 493.768 1014.94 343.146 1117.45 275.602C1225.47 204.422 1380.58 190.913 1495.23 250.841C1606.66 309.087 1625.02 456.035 1679.45 569.374C1721.59 657.093 1753.1 742.634 1776.77 837.022C1808.61 963.988 1888.41 1092.52 1841.29 1214.64C1791.39 1343.92 1662.6 1433.33 1530.5 1475.18C1400.12 1516.48 1263.05 1477.99 1131.86 1439.37C999.268 1400.34 842.904 1371.64 773.227 1252.27C704.603 1134.7 751.999 984.864 790.32 854.241C819.907 753.384 912.668 692.128 964.395 600.631Z" stroke="url(#paint64_linear_405_2075)" stroke-width="2"/>
<path opacity="0.546219" fill-rule="evenodd" clip-rule="evenodd" d="M963.619 589.426C1025.89 483.634 1018.65 332.863 1122.32 267.118C1231.57 197.834 1386.9 187.035 1500.48 248.954C1610.87 309.136 1626.67 456.382 1679.12 570.654C1719.71 659.094 1749.72 745.172 1771.74 839.959C1801.37 967.462 1878.91 1097.36 1829.66 1218.64C1777.52 1347.03 1647.19 1434.19 1514.37 1473.72C1383.29 1512.74 1246.92 1471.86 1116.42 1430.96C984.53 1389.62 828.691 1358.19 761.108 1237.63C694.547 1118.88 744.55 969.894 785.144 839.959C816.488 739.635 910.303 680.007 963.619 589.426Z" stroke="url(#paint65_linear_405_2075)" stroke-width="2"/>
<path opacity="0.554622" fill-rule="evenodd" clip-rule="evenodd" d="M962.706 578.373C1026.81 473.683 1022.21 322.809 1127.01 258.883C1237.45 191.517 1392.94 183.429 1505.42 247.322C1614.75 309.421 1627.97 456.921 1678.42 572.09C1717.46 661.226 1745.97 747.814 1766.33 842.971C1793.73 970.972 1868.99 1102.21 1817.63 1222.61C1763.26 1350.07 1631.43 1434.93 1497.94 1472.15C1366.2 1508.87 1230.56 1465.62 1100.8 1422.44C969.648 1378.81 814.381 1344.67 748.913 1222.94C684.434 1103.05 737.029 954.959 779.885 825.753C812.975 725.991 907.817 668.009 962.706 578.373Z" stroke="url(#paint66_linear_405_2075)" stroke-width="2"/>
<path opacity="0.563025" fill-rule="evenodd" clip-rule="evenodd" d="M961.652 567.468C1027.58 463.913 1025.61 312.981 1131.51 250.894C1243.1 185.465 1398.71 180.093 1510.07 245.939C1618.29 309.937 1628.94 457.645 1677.37 573.677C1714.85 663.48 1741.84 750.553 1760.54 846.051C1785.7 974.51 1858.66 1107.04 1805.21 1226.52C1748.62 1353.02 1615.32 1435.57 1481.21 1470.45C1348.85 1504.87 1213.98 1459.25 1084.99 1413.82C954.624 1367.9 799.976 1331.06 736.642 1208.2C674.266 1087.21 729.438 940.058 774.542 811.619C809.368 712.45 905.207 656.132 961.652 567.468Z" stroke="url(#paint67_linear_405_2075)" stroke-width="2"/>
<path opacity="0.571429" fill-rule="evenodd" clip-rule="evenodd" d="M960.456 556.709C1028.18 454.32 1028.84 303.377 1135.81 243.147C1248.53 179.677 1404.21 177.021 1514.4 244.8C1621.49 310.677 1629.56 458.548 1675.95 575.408C1711.86 665.852 1737.33 753.383 1754.36 849.192C1777.27 978.071 1847.91 1111.85 1792.38 1230.39C1733.59 1355.87 1598.87 1436.09 1464.17 1468.62C1331.23 1500.72 1197.19 1452.76 1069.01 1405.08C939.459 1356.9 785.478 1317.36 724.298 1193.42C664.042 1071.35 721.774 925.19 769.113 797.558C805.665 699.011 902.472 644.375 960.456 556.709Z" stroke="url(#paint68_linear_405_2075)" stroke-width="2"/>
<path opacity="0.579832" fill-rule="evenodd" clip-rule="evenodd" d="M959.116 546.094C1028.61 444.903 1031.91 293.994 1139.91 235.64C1253.73 174.146 1409.43 174.208 1518.42 243.9C1624.34 311.636 1629.83 459.625 1674.18 577.277C1708.5 668.334 1732.44 756.296 1747.8 852.388C1768.45 981.647 1836.75 1116.64 1779.15 1234.19C1718.19 1358.63 1582.09 1436.48 1446.84 1466.65C1313.36 1496.43 1180.17 1446.14 1052.84 1396.23C924.157 1345.8 770.889 1303.58 711.881 1178.59C653.766 1055.49 714.04 910.353 763.599 783.566C801.864 685.673 899.611 632.734 959.116 546.094Z" stroke="url(#paint69_linear_405_2075)" stroke-width="2"/>
<path opacity="0.588235" fill-rule="evenodd" clip-rule="evenodd" d="M957.627 535.619C1028.88 435.657 1034.81 284.829 1143.82 228.369C1258.68 168.871 1414.36 171.65 1522.12 243.233C1626.85 312.807 1629.75 460.87 1672.04 579.278C1704.77 670.92 1727.16 759.286 1740.84 855.632C1759.24 985.231 1825.17 1121.4 1765.53 1237.92C1702.4 1361.28 1564.97 1436.74 1429.21 1464.55C1295.23 1492 1162.94 1439.39 1036.5 1387.27C908.717 1334.59 756.209 1289.7 699.392 1163.7C643.433 1039.61 706.231 895.546 757.996 769.644C797.964 672.433 896.619 621.208 957.627 535.619Z" stroke="url(#paint70_linear_405_2075)" stroke-width="2"/>
<path opacity="0.596639" fill-rule="evenodd" clip-rule="evenodd" d="M955.988 525.284C1028.98 426.58 1037.54 275.879 1147.51 221.329C1263.4 163.845 1419.01 169.341 1525.49 242.793C1628.99 314.185 1629.31 462.276 1669.53 581.404C1700.65 673.603 1721.51 762.347 1733.5 858.916C1749.63 988.817 1813.17 1126.11 1751.51 1241.58C1686.24 1363.82 1547.51 1436.87 1411.29 1462.3C1276.85 1487.41 1145.5 1432.5 1019.99 1378.18C893.141 1323.28 741.441 1275.74 686.831 1148.76C633.047 1023.71 698.349 880.768 752.303 755.789C793.962 659.29 893.496 609.795 955.988 525.284Z" stroke="url(#paint71_linear_405_2075)" stroke-width="2"/>
<path opacity="0.605042" fill-rule="evenodd" clip-rule="evenodd" d="M954.197 515.084C1028.9 417.669 1040.09 267.14 1151 214.518C1267.87 159.065 1423.36 167.276 1528.55 242.576C1630.79 315.763 1628.52 463.836 1666.65 583.648C1696.16 676.377 1715.46 765.471 1725.77 862.235C1739.63 992.397 1800.77 1130.78 1737.1 1245.15C1669.7 1366.23 1529.72 1436.85 1393.07 1459.91C1258.22 1482.66 1127.85 1425.47 1003.3 1368.97C877.433 1311.86 726.585 1261.68 674.2 1133.77C622.606 1007.8 690.393 866.018 746.52 741.999C789.857 646.242 890.24 598.492 954.197 515.084Z" stroke="url(#paint72_linear_405_2075)" stroke-width="2"/>
<path opacity="0.613445" fill-rule="evenodd" clip-rule="evenodd" d="M952.253 505.017C1028.64 408.921 1042.46 258.61 1154.27 207.932C1272.09 154.527 1427.41 165.45 1531.27 242.574C1632.22 317.535 1627.36 465.546 1663.4 586.005C1691.29 679.234 1709.03 768.652 1717.65 865.581C1729.23 995.966 1787.95 1135.39 1722.3 1248.64C1652.79 1368.52 1511.6 1436.69 1374.57 1457.36C1239.34 1477.75 1109.99 1418.29 986.449 1359.63C861.594 1300.33 711.646 1247.52 661.5 1118.72C612.113 991.87 682.364 851.294 740.647 728.273C785.648 633.287 886.849 587.296 952.253 505.017Z" stroke="url(#paint73_linear_405_2075)" stroke-width="2"/>
<path opacity="0.621849" fill-rule="evenodd" clip-rule="evenodd" d="M950.15 495.081C1028.2 400.332 1044.64 250.286 1157.32 201.567C1276.06 150.226 1431.16 163.858 1533.66 242.783C1633.28 319.494 1625.85 467.398 1659.77 588.468C1686.03 682.17 1702.21 771.883 1709.13 868.948C1718.45 999.515 1774.72 1139.95 1707.1 1252.03C1635.51 1370.68 1493.15 1436.37 1355.79 1454.65C1220.22 1472.68 1091.92 1410.97 969.426 1350.16C845.625 1288.69 696.621 1233.28 648.731 1103.62C601.565 975.923 674.259 836.595 734.68 714.61C781.332 620.424 883.32 576.206 950.15 495.081Z" stroke="url(#paint74_linear_405_2075)" stroke-width="2"/>
<path opacity="0.630252" fill-rule="evenodd" clip-rule="evenodd" d="M947.888 485.272C1027.58 391.9 1046.64 242.163 1160.15 195.418C1279.76 146.158 1434.61 162.495 1535.71 243.197C1633.98 321.634 1623.96 469.386 1655.77 591.03C1680.39 685.175 1695 775.158 1700.23 872.329C1707.26 1003.04 1761.07 1144.43 1691.51 1255.31C1617.87 1372.7 1474.38 1435.9 1336.72 1451.77C1200.86 1467.44 1073.65 1403.5 952.238 1340.55C829.529 1276.94 681.515 1218.93 635.895 1088.46C590.965 959.958 666.079 821.919 728.62 701.007C776.908 607.65 879.653 565.219 947.888 485.272Z" stroke="url(#paint75_linear_405_2075)" stroke-width="2"/>
<path opacity="0.638655" fill-rule="evenodd" clip-rule="evenodd" d="M945.465 475.589C1026.78 383.622 1048.44 234.24 1162.75 189.483C1283.21 142.318 1437.74 161.355 1537.42 243.809C1634.31 323.95 1621.72 471.504 1651.4 593.684C1674.37 688.245 1687.41 778.469 1690.94 875.716C1695.69 1006.53 1747.02 1148.84 1675.53 1258.49C1599.85 1374.58 1455.29 1435.26 1317.37 1448.73C1181.25 1462.02 1055.19 1395.87 934.887 1330.82C813.307 1265.07 666.328 1204.49 622.992 1073.24C580.311 943.973 657.823 807.266 722.465 687.464C772.375 594.963 875.845 554.332 945.465 475.589Z" stroke="url(#paint76_linear_405_2075)" stroke-width="2"/>
<path opacity="0.647059" fill-rule="evenodd" clip-rule="evenodd" d="M942.879 466.027C1025.78 375.493 1050.05 226.513 1165.12 183.757C1286.39 138.702 1440.57 160.433 1538.79 244.614C1634.26 326.433 1619.1 473.745 1646.64 596.425C1667.96 691.372 1679.42 781.81 1681.26 879.104C1683.72 1009.98 1732.56 1153.16 1659.17 1261.55C1581.48 1376.3 1435.87 1434.45 1297.74 1445.51C1161.42 1456.42 1036.52 1388.08 917.377 1320.94C796.963 1253.08 651.063 1189.94 610.025 1057.96C569.607 927.967 649.493 792.634 716.215 673.978C767.732 582.363 871.895 543.543 942.879 466.027Z" stroke="url(#paint77_linear_405_2075)" stroke-width="2"/>
<path opacity="0.655462" fill-rule="evenodd" clip-rule="evenodd" d="M940.126 456.585C1024.6 367.511 1051.46 218.977 1167.26 178.237C1289.3 135.304 1443.07 159.723 1539.81 245.605C1633.84 329.078 1616.11 476.104 1641.51 599.245C1661.17 694.55 1671.05 785.174 1671.18 882.485C1671.36 1013.38 1717.7 1157.4 1642.43 1264.49C1562.74 1377.86 1416.14 1433.46 1277.84 1442.11C1141.34 1450.64 1017.66 1380.13 899.708 1310.92C780.497 1240.97 635.721 1175.3 596.992 1042.62C558.849 911.94 641.085 778.021 709.868 660.548C762.976 569.846 867.801 532.85 940.126 456.585Z" stroke="url(#paint78_linear_405_2075)" stroke-width="2"/>
<path opacity="0.663866" fill-rule="evenodd" clip-rule="evenodd" d="M937.206 447.259C1023.22 359.673 1052.67 211.63 1169.17 172.917C1291.93 132.121 1445.26 159.219 1540.49 246.777C1633.04 331.879 1612.74 478.572 1635.99 602.138C1653.98 697.772 1662.28 788.554 1660.72 885.853C1658.61 1016.73 1702.43 1161.54 1625.3 1267.3C1543.65 1379.26 1396.1 1432.29 1257.67 1438.53C1121.04 1444.68 998.612 1372.02 881.884 1300.76C763.911 1228.74 620.304 1160.55 583.896 1027.21C548.039 895.89 632.6 763.427 703.423 647.173C758.106 557.411 863.56 522.25 937.206 447.259Z" stroke="url(#paint79_linear_405_2075)" stroke-width="2"/>
<path opacity="0.672269" fill-rule="evenodd" clip-rule="evenodd" d="M934.116 438.046C1021.64 351.975 1053.68 204.469 1170.83 167.794C1294.28 129.147 1447.12 158.917 1540.8 248.124C1631.86 334.827 1609 481.144 1630.09 605.097C1646.41 701.03 1653.12 791.943 1649.86 889.2C1645.47 1020.03 1686.76 1165.57 1607.79 1269.97C1524.2 1380.49 1375.75 1430.94 1237.23 1434.75C1100.52 1438.52 979.373 1363.74 863.906 1290.45C747.209 1216.39 604.813 1145.7 570.739 1011.74C537.179 879.817 624.039 748.85 696.879 633.849C753.121 545.056 859.173 511.741 934.116 438.046Z" stroke="url(#paint80_linear_405_2075)" stroke-width="2"/>
<path opacity="0.680672" fill-rule="evenodd" clip-rule="evenodd" d="M930.855 428.943C1019.87 344.413 1054.48 197.488 1172.25 162.864C1296.36 126.377 1448.65 158.81 1540.76 249.638C1630.29 337.918 1604.89 483.813 1623.81 608.115C1638.45 704.319 1643.58 795.335 1638.62 892.52C1631.95 1023.25 1670.68 1169.49 1589.91 1272.5C1504.4 1381.54 1355.09 1429.39 1216.53 1430.79C1079.77 1432.17 959.95 1355.28 845.78 1279.99C730.392 1203.9 589.252 1130.74 557.521 996.212C526.269 863.72 615.401 734.289 690.237 620.577C748.02 532.778 854.637 501.319 930.855 428.943Z" stroke="url(#paint81_linear_405_2075)" stroke-width="2"/>
<path opacity="0.689076" fill-rule="evenodd" clip-rule="evenodd" d="M927.419 419.948C1017.9 336.984 1055.06 190.686 1173.42 158.122C1298.15 123.807 1449.85 158.893 1540.36 251.315C1628.34 341.144 1600.39 486.573 1617.14 611.187C1630.1 707.631 1633.64 798.723 1626.98 895.807C1618.03 1026.4 1654.21 1173.3 1571.65 1274.88C1484.25 1382.41 1334.13 1427.65 1195.56 1426.63C1058.81 1425.62 940.343 1346.65 827.504 1269.38C713.463 1191.29 573.621 1115.67 544.242 980.615C515.307 847.597 606.684 719.742 683.494 607.353C742.8 520.576 849.95 490.983 927.419 419.948Z" stroke="url(#paint82_linear_405_2075)" stroke-width="2"/>
<path opacity="0.697479" fill-rule="evenodd" clip-rule="evenodd" d="M923.809 411.057C1015.72 329.685 1055.43 184.057 1174.34 153.565C1299.65 121.431 1450.71 159.16 1539.6 253.147C1626 344.497 1595.52 489.417 1610.09 614.304C1621.36 710.96 1623.31 802.1 1614.96 899.053C1603.73 1029.47 1637.34 1176.97 1553.02 1277.1C1463.76 1383.09 1312.87 1425.7 1174.34 1422.26C1037.62 1418.87 920.557 1337.85 809.084 1258.62C696.422 1178.55 557.922 1100.5 530.904 964.952C504.295 831.449 597.89 705.208 676.65 594.176C737.461 508.448 845.111 480.729 923.809 411.057Z" stroke="url(#paint83_linear_405_2075)" stroke-width="2"/>
<path opacity="0.705882" fill-rule="evenodd" clip-rule="evenodd" d="M920.02 402.268C1013.34 322.512 1055.58 177.6 1175.01 149.187C1300.86 119.245 1451.24 159.604 1538.48 255.128C1623.26 347.973 1590.26 492.339 1602.65 617.461C1612.24 714.299 1612.59 805.458 1602.55 902.251C1589.05 1032.45 1620.08 1180.52 1534.03 1279.16C1442.93 1383.58 1291.32 1423.55 1152.87 1417.69C1016.23 1411.91 900.595 1328.86 790.521 1247.7C679.274 1165.67 542.157 1085.22 517.509 949.221C493.234 815.274 589.018 690.685 669.703 581.045C732.002 496.391 840.119 470.555 920.02 402.268Z" stroke="url(#paint84_linear_405_2075)" stroke-width="2"/>
<path opacity="0.714286" fill-rule="evenodd" clip-rule="evenodd" d="M916.054 393.576C1010.75 315.461 1055.52 171.308 1175.42 144.984C1301.78 117.243 1451.43 160.22 1536.98 257.253C1620.14 351.563 1584.62 495.331 1594.82 620.65C1602.72 717.64 1601.48 808.792 1589.76 905.395C1573.98 1035.34 1602.42 1183.93 1514.66 1281.05C1421.75 1383.86 1269.47 1421.18 1131.14 1412.91C994.628 1404.75 880.46 1319.69 771.82 1236.62C662.022 1152.66 526.329 1069.83 504.059 933.421C482.125 799.071 580.069 676.173 662.655 567.958C726.422 484.404 834.973 460.459 916.054 393.576Z" stroke="url(#paint85_linear_405_2075)" stroke-width="2"/>
<path opacity="0.722689" fill-rule="evenodd" clip-rule="evenodd" d="M911.907 384.979C1007.95 308.529 1055.23 165.179 1175.57 140.952C1302.39 115.42 1451.27 161.003 1535.12 259.513C1616.62 355.26 1578.59 498.386 1586.61 623.864C1592.81 720.978 1589.98 812.095 1576.57 908.478C1558.53 1038.13 1584.38 1187.19 1494.93 1282.76C1400.25 1383.94 1247.34 1418.6 1109.17 1407.91C972.821 1397.37 860.155 1310.33 752.981 1225.38C644.665 1139.52 510.438 1054.33 490.552 917.552C470.966 782.839 571.04 661.669 655.503 554.912C720.718 472.484 829.671 450.437 911.907 384.979Z" stroke="url(#paint86_linear_405_2075)" stroke-width="2"/>
<path opacity="0.731092" fill-rule="evenodd" clip-rule="evenodd" d="M907.576 376.474C1004.94 301.712 1054.71 159.209 1175.46 137.085C1302.71 113.771 1450.77 161.945 1532.89 261.904C1612.7 359.059 1572.18 501.5 1578.01 627.098C1582.51 724.305 1578.1 815.359 1563.01 911.493C1542.71 1040.81 1565.94 1190.3 1474.85 1284.3C1378.41 1383.81 1224.92 1415.79 1086.96 1402.69C950.813 1389.77 839.683 1300.78 734.008 1213.97C627.207 1126.23 494.488 1038.72 476.992 901.612C459.76 766.578 561.933 647.173 648.246 541.907C714.889 460.629 824.211 440.487 907.576 376.474Z" stroke="url(#paint87_linear_405_2075)" stroke-width="2"/>
<path opacity="0.739496" fill-rule="evenodd" clip-rule="evenodd" d="M903.062 368.058C1001.72 295.006 1053.97 153.394 1175.08 133.381C1302.72 112.291 1449.92 163.042 1530.28 264.419C1608.38 362.951 1565.38 504.663 1569.02 630.345C1571.83 727.615 1565.82 818.578 1549.05 914.434C1526.5 1043.38 1547.13 1193.25 1454.4 1285.64C1356.24 1383.46 1202.22 1412.75 1064.51 1397.25C928.608 1381.95 819.048 1291.04 714.904 1202.4C609.65 1112.81 478.479 1022.99 463.378 885.601C448.506 750.287 552.747 632.683 640.884 528.939C708.936 448.837 818.592 430.606 903.062 368.058Z" stroke="url(#paint88_linear_405_2075)" stroke-width="2"/>
<path opacity="0.747899" fill-rule="evenodd" clip-rule="evenodd" d="M898.364 359.728C998.28 288.409 1052.99 147.73 1174.44 129.834C1302.42 110.975 1448.71 164.287 1527.29 267.051C1603.66 366.931 1558.2 507.871 1559.64 633.597C1560.75 730.902 1553.16 821.746 1534.72 917.295C1509.92 1045.82 1527.93 1196.03 1433.61 1286.8C1333.75 1382.88 1179.24 1409.49 1041.82 1391.58C906.211 1373.91 798.255 1281.1 695.673 1190.66C591.999 1099.25 462.415 1007.15 449.714 869.518C437.206 733.966 543.484 618.199 633.418 516.009C702.857 437.106 812.815 420.792 898.364 359.728Z" stroke="url(#paint89_linear_405_2075)" stroke-width="2"/>
<path opacity="0.756303" fill-rule="evenodd" clip-rule="evenodd" d="M893.478 351.479C994.623 281.914 1051.78 142.212 1173.52 126.438C1301.81 109.815 1447.15 165.672 1523.93 269.792C1598.54 370.99 1550.63 511.115 1549.87 636.847C1549.28 734.156 1540.11 824.854 1520.01 920.067C1492.97 1048.14 1508.35 1198.64 1412.46 1287.75C1310.94 1382.07 1155.99 1405.98 1018.91 1385.68C883.623 1365.65 777.303 1270.97 676.316 1178.74C574.253 1085.54 446.296 991.195 436 853.361C425.859 717.611 534.141 603.717 625.845 503.112C696.651 425.433 806.876 411.04 893.478 351.479Z" stroke="url(#paint90_linear_405_2075)" stroke-width="2"/>
<path opacity="0.764706" fill-rule="evenodd" clip-rule="evenodd" d="M888.403 343.309C990.747 275.521 1050.34 136.837 1172.33 123.19C1300.9 108.809 1445.24 167.194 1520.18 272.637C1593.02 375.123 1542.67 514.39 1539.72 640.089C1537.43 737.374 1526.67 827.897 1504.91 922.745C1475.65 1050.33 1488.4 1201.08 1390.97 1288.49C1287.82 1381.03 1132.47 1402.23 995.765 1379.54C860.85 1357.15 756.199 1260.63 656.837 1166.66C556.416 1071.68 430.125 975.124 422.236 837.131C414.465 701.225 524.719 589.237 618.165 490.248C690.315 413.817 800.775 401.35 888.403 343.309Z" stroke="url(#paint91_linear_405_2075)" stroke-width="2"/>
<path opacity="0.773109" fill-rule="evenodd" clip-rule="evenodd" d="M883.139 335.215C986.651 269.223 1048.65 131.6 1170.87 120.084C1299.66 107.949 1442.96 168.844 1516.05 275.58C1587.1 379.321 1534.32 517.688 1529.17 643.317C1525.19 740.547 1512.86 830.869 1489.44 925.322C1457.95 1052.38 1468.07 1203.32 1369.13 1289.02C1264.38 1379.75 1108.69 1398.23 972.4 1373.16C837.897 1348.42 734.946 1250.09 637.239 1154.4C538.491 1057.69 413.904 958.935 408.424 820.826C403.027 684.804 515.218 574.759 610.377 477.415C683.851 402.255 794.512 391.717 883.139 335.215Z" stroke="url(#paint92_linear_405_2075)" stroke-width="2"/>
<path opacity="0.781513" fill-rule="evenodd" clip-rule="evenodd" d="M877.685 327.192C982.333 263.017 1046.73 126.497 1169.13 117.116C1298.11 107.231 1440.33 170.618 1511.55 278.613C1580.76 383.578 1525.58 521.003 1518.24 646.522C1512.57 743.668 1498.65 833.761 1473.6 927.791C1439.89 1054.28 1447.38 1205.38 1346.96 1289.34C1240.64 1378.22 1084.65 1393.99 948.818 1366.54C814.767 1339.46 713.548 1239.34 617.526 1141.96C520.48 1043.54 397.636 942.628 394.567 804.445C391.545 668.35 505.64 560.279 602.483 464.611C677.257 390.744 788.085 382.14 877.685 327.192Z" stroke="url(#paint93_linear_405_2075)" stroke-width="2"/>
<path opacity="0.789916" fill-rule="evenodd" clip-rule="evenodd" d="M872.038 319.239C977.79 256.9 1044.56 121.525 1167.1 114.282C1296.24 106.649 1437.33 172.508 1506.65 281.729C1574.03 387.886 1516.45 524.327 1506.93 649.7C1499.55 746.731 1484.07 836.568 1457.38 930.147C1421.47 1056.02 1426.32 1207.23 1324.44 1289.43C1216.6 1376.44 1060.35 1389.48 925.021 1359.67C791.463 1330.25 692.006 1228.38 597.699 1129.34C502.386 1029.24 381.321 926.204 380.665 787.987C380.018 651.86 495.981 545.797 594.48 451.834C670.532 379.284 781.493 372.614 872.038 319.239Z" stroke="url(#paint94_linear_405_2075)" stroke-width="2"/>
<path opacity="0.798319" fill-rule="evenodd" clip-rule="evenodd" d="M866.198 311.352C973.021 250.868 1042.14 116.678 1164.79 111.575C1294.04 106.197 1433.96 174.508 1501.37 284.923C1566.88 392.24 1506.93 527.655 1495.22 652.842C1486.16 749.731 1469.11 839.283 1440.79 932.382C1402.69 1057.61 1404.9 1208.88 1301.6 1289.29C1192.25 1374.41 1035.8 1384.72 901.014 1352.55C767.99 1320.8 670.327 1217.21 577.762 1116.54C484.21 1014.79 364.963 909.659 366.718 771.453C368.447 635.335 486.244 531.312 586.367 439.082C663.674 367.87 774.734 363.139 866.198 311.352Z" stroke="url(#paint95_linear_405_2075)" stroke-width="2"/>
<path opacity="0.806723" fill-rule="evenodd" clip-rule="evenodd" d="M860.163 303.526C968.026 244.915 1039.48 111.953 1162.2 108.991C1291.52 105.869 1430.23 176.612 1495.7 288.186C1559.33 396.63 1497.03 530.979 1483.13 655.943C1472.38 752.658 1453.77 841.899 1423.83 934.49C1383.55 1059.04 1383.12 1210.32 1278.43 1288.91C1167.61 1372.11 1011.01 1379.69 876.803 1345.17C744.353 1311.11 648.512 1205.83 557.718 1103.56C465.957 1000.2 348.562 892.995 352.73 754.84C356.834 618.773 476.428 516.821 578.146 426.353C656.683 356.501 767.81 353.709 860.163 303.526Z" stroke="url(#paint96_linear_405_2075)" stroke-width="2"/>
<path opacity="0.815126" fill-rule="evenodd" clip-rule="evenodd" d="M853.934 295.759C962.803 239.04 1036.56 107.344 1159.32 106.524C1288.68 105.66 1426.13 178.813 1489.64 291.513C1551.37 401.051 1486.73 534.292 1470.66 658.994C1458.22 755.507 1438.05 844.41 1406.5 936.464C1364.05 1060.29 1360.98 1211.54 1254.94 1288.3C1142.69 1369.55 985.977 1374.39 852.392 1337.54C720.556 1301.17 626.568 1194.23 537.573 1090.39C447.629 985.442 332.123 876.209 338.701 738.148C345.179 602.174 466.535 502.325 569.816 413.645C649.561 345.175 760.719 344.322 853.934 295.759Z" stroke="url(#paint97_linear_405_2075)" stroke-width="2"/>
<path opacity="0.823529" fill-rule="evenodd" clip-rule="evenodd" d="M847.507 288.047C957.349 233.237 1033.4 102.849 1156.15 104.172C1285.5 105.566 1421.65 181.106 1483.19 294.897C1543 405.496 1476.05 537.588 1457.8 661.991C1443.67 758.272 1421.96 846.81 1388.81 938.298C1344.21 1061.36 1338.49 1212.54 1231.13 1287.43C1117.48 1366.71 960.706 1368.82 827.784 1329.64C696.603 1290.98 604.495 1182.42 517.326 1077.04C429.227 970.535 315.646 859.303 324.632 721.377C333.483 585.537 456.562 487.821 561.375 400.958C642.303 333.889 753.459 334.977 847.507 288.047Z" stroke="url(#paint98_linear_405_2075)" stroke-width="2"/>
<path opacity="0.831933" fill-rule="evenodd" clip-rule="evenodd" d="M840.883 280.388C951.665 227.503 1029.98 98.4617 1152.68 101.926C1282 105.578 1416.81 183.483 1476.35 298.331C1534.22 409.956 1464.97 540.86 1444.55 664.925C1428.75 760.945 1405.5 849.09 1370.75 939.987C1324.01 1062.26 1315.66 1213.31 1207.01 1286.31C1091.99 1363.6 935.202 1362.97 802.984 1321.48C672.498 1280.53 582.299 1170.38 496.982 1063.5C410.756 955.471 299.133 842.274 310.525 704.526C321.745 568.861 446.511 473.308 552.824 388.287C634.91 322.641 746.03 325.669 840.883 280.388Z" stroke="url(#paint99_linear_405_2075)" stroke-width="2"/>
<path opacity="0.840336" fill-rule="evenodd" clip-rule="evenodd" d="M834.06 272.777C945.748 221.833 1026.3 94.1786 1148.93 99.7844C1278.16 105.692 1411.59 185.938 1469.12 301.807C1525.03 414.426 1453.51 544.101 1430.93 667.791C1413.45 763.521 1388.67 851.247 1352.34 941.523C1303.47 1062.96 1292.48 1213.84 1182.58 1284.94C1066.22 1360.21 909.471 1356.84 777.998 1313.05C648.246 1269.83 559.983 1158.12 476.545 1049.76C392.217 940.251 282.586 825.122 296.381 687.595C309.967 552.146 436.381 458.785 544.162 375.632C627.381 311.429 738.431 316.395 834.06 272.777Z" stroke="url(#paint100_linear_405_2075)" stroke-width="2"/>
<path opacity="0.84874" fill-rule="evenodd" clip-rule="evenodd" d="M827.04 265.21C939.6 216.224 1022.37 89.9944 1144.88 97.7396C1273.99 105.902 1406 188.464 1461.49 305.32C1515.43 418.897 1441.66 547.304 1416.92 670.581C1397.78 765.991 1371.47 853.272 1333.57 942.9C1282.59 1063.46 1268.97 1214.14 1157.84 1283.3C1040.19 1356.53 883.52 1350.43 752.831 1304.34C623.853 1258.87 537.553 1145.64 456.018 1035.84C373.615 924.872 266.01 807.847 282.203 670.581C298.15 535.39 426.175 444.25 535.391 362.991C619.717 300.25 730.664 307.153 827.04 265.21Z" stroke="url(#paint101_linear_405_2075)" stroke-width="2"/>
<path opacity="0.857143" fill-rule="evenodd" clip-rule="evenodd" d="M819.818 257.686C933.216 210.671 1018.17 85.9053 1140.53 95.7875C1269.48 106.201 1400.03 191.055 1453.47 308.862C1505.42 423.363 1429.42 550.463 1402.54 673.29C1381.73 768.351 1353.9 855.159 1314.44 944.112C1261.37 1063.77 1245.12 1214.18 1132.8 1281.4C1013.89 1352.56 857.35 1343.72 727.485 1295.37C599.321 1247.64 515.01 1132.93 435.404 1021.72C354.95 909.333 249.404 790.449 267.989 653.486C286.294 518.594 415.89 429.702 526.507 350.361C611.916 289.102 722.725 297.94 819.818 257.686Z" stroke="url(#paint102_linear_405_2075)" stroke-width="2"/>
<path opacity="0.865546" fill-rule="evenodd" clip-rule="evenodd" d="M812.396 250.2C926.598 205.171 1013.72 81.9071 1135.89 93.9233C1264.63 106.586 1393.68 193.705 1445.06 312.427C1495 427.817 1416.79 553.572 1387.77 675.91C1365.31 770.594 1335.97 856.903 1294.96 945.154C1239.81 1063.86 1220.94 1213.97 1107.46 1279.22C987.328 1348.29 830.969 1336.72 701.967 1286.11C574.656 1236.16 492.36 1119.99 414.707 1007.41C336.226 893.635 232.771 772.926 253.744 636.309C274.4 501.757 405.528 415.14 517.512 337.742C603.977 277.982 714.616 288.753 812.396 250.2Z" stroke="url(#paint103_linear_405_2075)" stroke-width="2"/>
<path opacity="0.87395" fill-rule="evenodd" clip-rule="evenodd" d="M804.773 242.747C919.743 199.718 1009 77.9935 1130.94 92.1399C1259.44 107.047 1386.95 196.406 1436.26 316.006C1484.18 432.25 1403.78 556.621 1372.63 678.434C1348.52 772.711 1317.68 858.495 1275.14 946.017C1217.92 1063.75 1196.43 1213.5 1081.84 1276.76C960.514 1343.72 804.38 1329.43 676.282 1276.57C549.861 1224.41 469.606 1106.82 393.929 992.901C317.446 877.773 216.113 755.278 239.467 619.048C262.469 484.876 395.088 400.561 508.406 325.129C595.901 266.888 706.335 279.588 804.773 242.747Z" stroke="url(#paint104_linear_405_2075)" stroke-width="2"/>
<path opacity="0.882353" fill-rule="evenodd" clip-rule="evenodd" d="M796.949 235.326C912.653 194.31 1004.02 74.1618 1125.7 90.4343C1253.92 107.582 1379.85 199.152 1427.06 319.595C1472.94 436.657 1390.39 559.606 1357.12 680.857C1331.37 774.699 1299.03 859.931 1254.97 946.698C1195.7 1063.41 1171.61 1212.77 1055.92 1274.01C933.452 1338.85 777.591 1321.84 650.435 1266.75C524.944 1212.39 446.753 1093.41 373.076 978.196C298.613 861.751 199.434 737.505 225.162 601.703C250.502 467.954 384.572 385.966 499.19 312.524C587.688 255.818 697.883 270.444 796.949 235.326Z" stroke="url(#paint105_linear_405_2075)" stroke-width="2"/>
<path opacity="0.890756" fill-rule="evenodd" clip-rule="evenodd" d="M788.922 227.932C905.324 188.942 998.777 70.4066 1120.15 88.8C1248.05 108.183 1372.37 201.937 1417.46 323.185C1461.3 441.031 1376.61 562.52 1341.23 683.172C1313.84 776.55 1280.02 861.205 1234.46 947.189C1173.16 1062.85 1146.47 1211.76 1029.73 1270.98C906.145 1333.67 750.605 1313.94 624.429 1256.64C499.906 1200.1 423.803 1079.78 352.148 963.291C279.729 845.564 182.734 719.607 210.828 584.275C238.498 450.988 373.979 371.352 489.861 299.921C579.335 244.769 689.258 261.316 788.922 227.932Z" stroke="url(#paint106_linear_405_2075)" stroke-width="2"/>
<path opacity="0.89916" fill-rule="evenodd" clip-rule="evenodd" d="M780.692 220.562C897.757 183.609 993.264 66.7226 1114.3 87.2315C1241.84 108.844 1364.5 204.753 1407.48 326.77C1449.25 445.362 1362.46 565.355 1324.97 685.371C1295.96 778.258 1260.67 862.309 1213.61 947.485C1150.3 1062.06 1121.01 1210.48 1003.26 1267.65C878.599 1328.18 723.427 1305.74 598.271 1246.25C474.754 1187.54 400.762 1065.9 331.151 948.186C260.798 829.213 166.015 701.582 196.467 566.761C226.459 433.977 363.309 356.718 480.42 287.321C570.843 233.738 680.461 252.201 780.692 220.562Z" stroke="url(#paint107_linear_405_2075)" stroke-width="2"/>
<path opacity="0.907563" fill-rule="evenodd" clip-rule="evenodd" d="M772.259 213.213C889.951 178.309 987.484 63.107 1108.14 85.7251C1235.29 109.56 1356.25 207.596 1397.09 330.343C1436.79 449.647 1347.92 568.107 1308.34 687.45C1277.71 779.816 1240.96 863.239 1192.42 947.581C1127.13 1061.03 1095.25 1208.92 976.518 1264.03C850.821 1322.37 696.064 1297.22 571.965 1235.56C449.491 1174.7 377.634 1051.8 310.088 932.881C241.822 812.698 149.281 683.432 182.081 549.163C214.386 416.923 352.564 342.064 470.868 274.721C562.212 222.725 671.491 243.098 772.259 213.213Z" stroke="url(#paint108_linear_405_2075)" stroke-width="2"/>
<path opacity="0.915966" fill-rule="evenodd" clip-rule="evenodd" d="M763.624 205.879C881.907 173.035 981.436 59.5529 1101.68 84.2733C1228.39 110.324 1347.63 210.455 1386.32 333.897C1423.93 453.875 1333 570.766 1291.35 689.401C1259.11 781.218 1220.91 863.987 1170.91 947.468C1103.64 1059.76 1069.19 1207.07 949.512 1260.1C822.816 1316.24 668.522 1288.39 545.518 1224.57C424.125 1161.59 354.423 1037.45 288.963 917.372C222.805 796.016 132.534 665.155 167.673 531.479C202.28 399.823 341.743 327.387 461.205 262.119C553.443 211.724 662.349 234.001 763.624 205.879Z" stroke="url(#paint109_linear_405_2075)" stroke-width="2"/>
<path opacity="0.92437" fill-rule="evenodd" clip-rule="evenodd" d="M754.784 198.56C873.622 167.785 975.116 56.0569 1094.91 82.8721C1221.15 111.13 1338.62 213.327 1375.15 337.426C1410.66 458.042 1317.7 573.328 1273.99 691.218C1240.16 782.459 1200.51 864.548 1149.06 947.144C1079.85 1058.25 1042.83 1204.93 922.245 1255.87C794.589 1309.78 640.804 1279.25 518.932 1213.29C398.657 1148.2 331.133 1022.86 267.778 901.66C203.748 779.168 115.775 646.752 153.241 513.709C190.141 382.677 330.847 312.686 451.429 249.512C544.533 200.736 653.034 224.91 754.784 198.56Z" stroke="url(#paint110_linear_405_2075)" stroke-width="2"/>
<path opacity="0.932773" fill-rule="evenodd" clip-rule="evenodd" d="M745.74 191.25C865.097 162.554 968.526 52.6141 1087.83 81.5159C1213.56 111.973 1329.23 216.205 1363.59 340.922C1396.98 462.139 1302.03 575.786 1256.27 692.894C1220.85 783.531 1179.78 864.916 1126.89 946.601C1055.75 1056.48 1016.18 1202.5 894.723 1251.32C766.145 1303 612.917 1269.79 492.215 1201.71C373.094 1134.53 307.767 1008.03 246.537 885.744C184.655 762.153 99.006 628.221 138.789 495.853C177.97 365.484 319.876 297.96 441.543 236.901C535.483 189.756 643.546 215.82 745.74 191.25Z" stroke="url(#paint111_linear_405_2075)" stroke-width="2"/>
<path opacity="0.941176" fill-rule="evenodd" clip-rule="evenodd" d="M736.492 183.947C856.332 157.338 961.663 49.22 1080.45 80.1995C1205.62 112.846 1319.46 219.081 1351.63 344.378C1382.91 466.16 1285.99 578.132 1238.19 694.425C1201.19 784.429 1158.71 865.085 1104.4 945.835C1031.36 1054.46 989.239 1199.76 866.952 1246.45C737.492 1295.88 584.866 1260 465.371 1189.83C347.44 1120.58 284.331 992.96 225.245 869.622C165.529 744.97 82.2304 609.564 124.317 477.91C165.767 348.246 308.831 283.208 431.544 224.281C526.293 178.783 633.884 206.73 736.492 183.947Z" stroke="url(#paint112_linear_405_2075)" stroke-width="2"/>
<path opacity="0.94958" fill-rule="evenodd" clip-rule="evenodd" d="M727.041 176.645C847.327 152.132 954.529 45.8691 1072.76 78.917C1197.34 113.743 1309.3 221.948 1339.29 347.788C1368.43 470.098 1269.58 580.361 1219.75 695.801C1181.19 785.146 1137.31 865.048 1081.6 944.838C1006.67 1052.17 962.022 1196.72 838.937 1241.27C708.634 1288.43 556.658 1249.89 438.406 1177.64C321.702 1106.34 260.83 977.644 203.905 853.294C146.374 727.619 65.451 590.78 109.829 459.88C153.536 330.959 297.712 268.428 421.436 211.652C516.964 167.814 624.051 197.634 727.041 176.645Z" stroke="url(#paint113_linear_405_2075)" stroke-width="2"/>
<path opacity="0.957983" fill-rule="evenodd" clip-rule="evenodd" d="M717.385 169.343C838.08 146.933 947.121 42.5568 1064.75 77.663C1188.71 114.658 1298.77 224.801 1326.55 351.145C1353.56 473.944 1252.79 582.466 1200.96 697.019C1160.85 785.677 1115.57 864.801 1058.48 943.607C981.689 1049.61 934.527 1193.36 810.684 1235.75C679.578 1280.64 528.298 1239.45 411.324 1165.15C295.883 1091.82 237.266 962.083 182.52 836.759C127.19 710.099 48.6681 571.868 95.3237 441.763C141.274 313.624 286.52 253.619 411.215 199.011C507.494 156.847 614.045 188.531 717.385 169.343Z" stroke="url(#paint114_linear_405_2075)" stroke-width="2"/>
<path opacity="0.966387" fill-rule="evenodd" clip-rule="evenodd" d="M707.525 162.037C828.593 141.736 939.439 39.2794 1056.44 76.4332C1179.74 115.586 1287.85 227.633 1313.43 354.443C1338.29 477.695 1235.64 584.441 1181.82 698.072C1140.16 786.017 1093.51 864.338 1035.06 942.136C956.426 1046.78 906.762 1189.69 782.198 1229.91C650.329 1272.5 499.79 1228.68 384.131 1152.35C269.987 1077.02 213.643 946.277 161.093 820.016C107.982 692.41 31.8847 552.83 80.8039 423.558C128.984 296.241 275.254 238.78 400.884 186.357C497.884 145.88 603.865 179.418 707.525 162.037Z" stroke="url(#paint115_linear_405_2075)" stroke-width="2"/>
<path opacity="0.97479" fill-rule="evenodd" clip-rule="evenodd" d="M697.461 154.722C818.865 136.538 931.482 36.0308 1047.82 75.2209C1170.41 116.52 1276.55 230.436 1299.91 357.673C1322.62 481.34 1218.12 586.279 1162.33 698.953C1119.14 786.157 1071.13 863.653 1011.33 940.419C930.883 1043.68 878.733 1185.69 753.486 1223.74C620.893 1264.02 471.142 1217.58 356.833 1139.24C244.021 1061.93 189.968 930.224 139.629 803.065C88.7533 674.551 15.1033 533.664 66.2711 405.266C116.665 278.809 263.917 223.909 390.442 173.686C488.134 134.909 593.514 170.292 697.461 154.722Z" stroke="url(#paint116_linear_405_2075)" stroke-width="2"/>
<path opacity="0.983193" fill-rule="evenodd" clip-rule="evenodd" d="M687.194 147.396C808.897 131.333 923.251 32.8068 1038.88 74.0212C1160.74 117.453 1264.88 233.205 1286.01 360.83C1306.56 484.875 1200.25 587.973 1142.49 699.657C1097.79 786.094 1048.44 862.74 987.303 938.45C905.066 1040.29 850.445 1181.37 724.553 1217.23C591.278 1255.19 442.361 1206.14 329.436 1125.82C217.99 1046.55 166.244 913.922 118.132 785.904C69.5069 656.522 -1.67313 514.371 51.7277 386.886C104.321 261.328 252.509 209.006 379.891 160.999C478.245 123.932 582.991 161.149 687.194 147.396Z" stroke="url(#paint117_linear_405_2075)" stroke-width="2"/>
<path opacity="0.991597" fill-rule="evenodd" clip-rule="evenodd" d="M676.723 140.054C798.687 126.118 914.743 29.6026 1029.64 72.8288C1150.72 118.381 1252.82 235.932 1271.73 363.907C1290.1 488.291 1182.01 589.519 1122.31 700.177C1076.11 785.821 1025.43 861.595 962.98 936.226C878.979 1036.62 821.904 1176.72 695.405 1210.38C561.488 1246 413.449 1194.36 301.943 1112.09C191.898 1030.89 142.474 897.372 96.6033 768.534C50.2441 638.323 -18.4442 494.951 37.1734 368.418C91.9504 243.796 241.028 194.069 369.229 148.292C468.215 112.948 572.295 151.987 676.723 140.054Z" stroke="url(#paint118_linear_405_2075)" stroke-width="2"/>
<path fill-rule="evenodd" clip-rule="evenodd" d="M666.048 132.694C788.237 120.888 905.96 26.413 1020.08 71.6379C1140.35 119.296 1240.39 238.612 1257.05 366.897C1273.25 491.583 1163.41 590.908 1101.79 700.508C1054.1 785.333 1002.11 860.21 938.366 933.74C852.626 1032.65 793.115 1171.74 666.048 1203.18C531.529 1236.46 384.414 1182.25 274.361 1098.04C165.75 1014.93 118.663 880.572 75.0486 750.953C30.9688 619.953 -35.2068 475.405 22.6107 349.861C79.5543 226.214 229.477 179.096 358.457 135.564C458.045 101.952 561.428 142.802 666.048 132.694Z" stroke="url(#paint119_linear_405_2075)" stroke-width="2"/>
</g>
<defs>
<linearGradient id="paint0_linear_405_2075" x1="2456.55" y1="2379.12" x2="1398.5" y2="-602.075" gradientUnits="userSpaceOnUse">
<stop stop-color="#E66B6B"/>
<stop offset="1" stop-color="#D78F47"/>
</linearGradient>
<linearGradient id="paint1_linear_405_2075" x1="825.288" y1="1745.28" x2="1843.9" y2="1203.67" gradientUnits="userSpaceOnUse">
<stop stop-color="#E5A186"/>
<stop offset="1" stop-color="#E5A186"/>
</linearGradient>
<linearGradient id="paint2_linear_405_2075" x1="825.532" y1="1721.21" x2="1853.44" y2="1197.47" gradientUnits="userSpaceOnUse">
<stop stop-color="#E5A186"/>
<stop offset="1" stop-color="#E5A186"/>
</linearGradient>
<linearGradient id="paint3_linear_405_2075" x1="825.864" y1="1697.31" x2="1862.76" y2="1191.59" gradientUnits="userSpaceOnUse">
<stop stop-color="#E5A186"/>
<stop offset="1" stop-color="#E5A186"/>
</linearGradient>
<linearGradient id="paint4_linear_405_2075" x1="826.281" y1="1673.59" x2="1871.84" y2="1186.04" gradientUnits="userSpaceOnUse">
<stop stop-color="#E5A186"/>
<stop offset="1" stop-color="#E5A186"/>
</linearGradient>
<linearGradient id="paint5_linear_405_2075" x1="826.777" y1="1650.04" x2="1880.69" y2="1180.81" gradientUnits="userSpaceOnUse">
<stop stop-color="#E5A186"/>
<stop offset="1" stop-color="#E5A186"/>
</linearGradient>
<linearGradient id="paint6_linear_405_2075" x1="827.352" y1="1626.66" x2="1889.29" y2="1175.9" gradientUnits="userSpaceOnUse">
<stop stop-color="#E5A186"/>
<stop offset="1" stop-color="#E5A186"/>
</linearGradient>
<linearGradient id="paint7_linear_405_2075" x1="828.002" y1="1603.47" x2="1897.65" y2="1171.3" gradientUnits="userSpaceOnUse">
<stop stop-color="#E5A186"/>
<stop offset="1" stop-color="#E5A186"/>
</linearGradient>
<linearGradient id="paint8_linear_405_2075" x1="828.724" y1="1580.44" x2="1905.75" y2="1167.01" gradientUnits="userSpaceOnUse">
<stop stop-color="#E5A186"/>
<stop offset="1" stop-color="#E5A186"/>
</linearGradient>
<linearGradient id="paint9_linear_405_2075" x1="829.514" y1="1557.6" x2="1913.59" y2="1163.03" gradientUnits="userSpaceOnUse">
<stop stop-color="#E5A186"/>
<stop offset="1" stop-color="#E5A186"/>
</linearGradient>
<linearGradient id="paint10_linear_405_2075" x1="830.37" y1="1534.94" x2="1921.17" y2="1159.35" gradientUnits="userSpaceOnUse">
<stop stop-color="#E5A186"/>
<stop offset="1" stop-color="#E5A186"/>
</linearGradient>
<linearGradient id="paint11_linear_405_2075" x1="831.288" y1="1512.46" x2="1928.47" y2="1155.96" gradientUnits="userSpaceOnUse">
<stop stop-color="#E5A186"/>
<stop offset="1" stop-color="#E5A186"/>
</linearGradient>
<linearGradient id="paint12_linear_405_2075" x1="832.267" y1="1490.16" x2="1935.51" y2="1152.87" gradientUnits="userSpaceOnUse">
<stop stop-color="#E5A186"/>
<stop offset="1" stop-color="#E5A186"/>
</linearGradient>
<linearGradient id="paint13_linear_405_2075" x1="833.3" y1="1468.05" x2="1942.26" y2="1150.06" gradientUnits="userSpaceOnUse">
<stop stop-color="#E5A186"/>
<stop offset="1" stop-color="#E5A186"/>
</linearGradient>
<linearGradient id="paint14_linear_405_2075" x1="834.386" y1="1446.11" x2="1948.73" y2="1147.53" gradientUnits="userSpaceOnUse">
<stop stop-color="#E5A186"/>
<stop offset="1" stop-color="#E5A186"/>
</linearGradient>
<linearGradient id="paint15_linear_405_2075" x1="835.522" y1="1424.37" x2="1954.9" y2="1145.28" gradientUnits="userSpaceOnUse">
<stop stop-color="#E5A186"/>
<stop offset="1" stop-color="#E5A186"/>
</linearGradient>
<linearGradient id="paint16_linear_405_2075" x1="836.705" y1="1402.81" x2="1960.79" y2="1143.29" gradientUnits="userSpaceOnUse">
<stop stop-color="#E5A186"/>
<stop offset="1" stop-color="#E5A186"/>
</linearGradient>
<linearGradient id="paint17_linear_405_2075" x1="837.931" y1="1381.44" x2="1966.37" y2="1141.58" gradientUnits="userSpaceOnUse">
<stop stop-color="#E5A186"/>
<stop offset="1" stop-color="#E5A186"/>
</linearGradient>
<linearGradient id="paint18_linear_405_2075" x1="839.196" y1="1360.25" x2="1971.65" y2="1140.12" gradientUnits="userSpaceOnUse">
<stop stop-color="#E5A186"/>
<stop offset="1" stop-color="#E5A186"/>
</linearGradient>
<linearGradient id="paint19_linear_405_2075" x1="840.498" y1="1339.25" x2="1976.62" y2="1138.92" gradientUnits="userSpaceOnUse">
<stop stop-color="#E5A186"/>
<stop offset="1" stop-color="#E5A186"/>
</linearGradient>
<linearGradient id="paint20_linear_405_2075" x1="841.834" y1="1318.45" x2="1981.28" y2="1137.97" gradientUnits="userSpaceOnUse">
<stop stop-color="#E5A186"/>
<stop offset="1" stop-color="#E5A186"/>
</linearGradient>
<linearGradient id="paint21_linear_405_2075" x1="843.199" y1="1297.83" x2="1985.62" y2="1137.27" gradientUnits="userSpaceOnUse">
<stop stop-color="#E5A186"/>
<stop offset="1" stop-color="#E5A186"/>
</linearGradient>
<linearGradient id="paint22_linear_405_2075" x1="844.591" y1="1277.4" x2="1989.64" y2="1136.8" gradientUnits="userSpaceOnUse">
<stop stop-color="#E5A186"/>
<stop offset="1" stop-color="#E5A186"/>
</linearGradient>
<linearGradient id="paint23_linear_405_2075" x1="846.006" y1="1257.16" x2="1993.34" y2="1136.57" gradientUnits="userSpaceOnUse">
<stop stop-color="#E5A186"/>
<stop offset="1" stop-color="#E5A186"/>
</linearGradient>
<linearGradient id="paint24_linear_405_2075" x1="847.442" y1="1237.11" x2="1996.7" y2="1136.56" gradientUnits="userSpaceOnUse">
<stop stop-color="#E5A186"/>
<stop offset="1" stop-color="#E5A186"/>
</linearGradient>
<linearGradient id="paint25_linear_405_2075" x1="848.894" y1="1217.25" x2="1999.73" y2="1136.78" gradientUnits="userSpaceOnUse">
<stop stop-color="#E5A186"/>
<stop offset="1" stop-color="#E5A186"/>
</linearGradient>
<linearGradient id="paint26_linear_405_2075" x1="850.359" y1="1197.59" x2="2002.43" y2="1137.21" gradientUnits="userSpaceOnUse">
<stop stop-color="#E5A186"/>
<stop offset="1" stop-color="#E5A186"/>
</linearGradient>
<linearGradient id="paint27_linear_405_2075" x1="851.834" y1="1178.11" x2="2004.78" y2="1137.85" gradientUnits="userSpaceOnUse">
<stop stop-color="#E5A186"/>
<stop offset="1" stop-color="#E5A186"/>
</linearGradient>
<linearGradient id="paint28_linear_405_2075" x1="853.317" y1="1158.83" x2="2006.79" y2="1138.69" gradientUnits="userSpaceOnUse">
<stop stop-color="#E5A186"/>
<stop offset="1" stop-color="#E5A186"/>
</linearGradient>
<linearGradient id="paint29_linear_405_2075" x1="854.803" y1="1139.74" x2="2008.45" y2="1139.74" gradientUnits="userSpaceOnUse">
<stop stop-color="#E5A186"/>
<stop offset="1" stop-color="#E5A186"/>
</linearGradient>
<linearGradient id="paint30_linear_405_2075" x1="856.288" y1="1120.84" x2="2009.76" y2="1140.97" gradientUnits="userSpaceOnUse">
<stop stop-color="#E5A186"/>
<stop offset="1" stop-color="#E5A186"/>
</linearGradient>
<linearGradient id="paint31_linear_405_2075" x1="857.77" y1="1102.13" x2="2010.72" y2="1142.39" gradientUnits="userSpaceOnUse">
<stop stop-color="#E5A186"/>
<stop offset="1" stop-color="#E5A186"/>
</linearGradient>
<linearGradient id="paint32_linear_405_2075" x1="859.246" y1="1083.61" x2="2011.31" y2="1143.99" gradientUnits="userSpaceOnUse">
<stop stop-color="#E5A186"/>
<stop offset="1" stop-color="#E5A186"/>
</linearGradient>
<linearGradient id="paint33_linear_405_2075" x1="860.712" y1="1065.29" x2="2011.55" y2="1145.76" gradientUnits="userSpaceOnUse">
<stop stop-color="#E5A186"/>
<stop offset="1" stop-color="#E5A186"/>
</linearGradient>
<linearGradient id="paint34_linear_405_2075" x1="862.163" y1="1047.15" x2="2011.42" y2="1147.7" gradientUnits="userSpaceOnUse">
<stop stop-color="#E5A186"/>
<stop offset="1" stop-color="#E5A186"/>
</linearGradient>
<linearGradient id="paint35_linear_405_2075" x1="863.599" y1="1029.21" x2="2010.93" y2="1149.8" gradientUnits="userSpaceOnUse">
<stop stop-color="#E5A186"/>
<stop offset="1" stop-color="#E5A186"/>
</linearGradient>
<linearGradient id="paint36_linear_405_2075" x1="865.015" y1="1011.46" x2="2010.07" y2="1152.05" gradientUnits="userSpaceOnUse">
<stop stop-color="#E5A186"/>
<stop offset="1" stop-color="#E5A186"/>
</linearGradient>
<linearGradient id="paint37_linear_405_2075" x1="866.406" y1="993.896" x2="2008.83" y2="1154.45" gradientUnits="userSpaceOnUse">
<stop stop-color="#E5A186"/>
<stop offset="1" stop-color="#E5A186"/>
</linearGradient>
<linearGradient id="paint38_linear_405_2075" x1="867.772" y1="976.524" x2="2007.22" y2="1156.99" gradientUnits="userSpaceOnUse">
<stop stop-color="#E5A186"/>
<stop offset="1" stop-color="#E5A186"/>
</linearGradient>
<linearGradient id="paint39_linear_405_2075" x1="869.107" y1="959.341" x2="2005.23" y2="1159.67" gradientUnits="userSpaceOnUse">
<stop stop-color="#E5A186"/>
<stop offset="1" stop-color="#E5A186"/>
</linearGradient>
<linearGradient id="paint40_linear_405_2075" x1="870.408" y1="942.347" x2="2002.86" y2="1162.47" gradientUnits="userSpaceOnUse">
<stop stop-color="#E5A186"/>
<stop offset="1" stop-color="#E5A186"/>
</linearGradient>
<linearGradient id="paint41_linear_405_2075" x1="871.675" y1="925.542" x2="2000.11" y2="1165.4" gradientUnits="userSpaceOnUse">
<stop stop-color="#E5A186"/>
<stop offset="1" stop-color="#E5A186"/>
</linearGradient>
<linearGradient id="paint42_linear_405_2075" x1="872.9" y1="908.923" x2="1996.98" y2="1168.44" gradientUnits="userSpaceOnUse">
<stop stop-color="#E5A186"/>
<stop offset="1" stop-color="#E5A186"/>
</linearGradient>
<linearGradient id="paint43_linear_405_2075" x1="874.082" y1="892.492" x2="1993.46" y2="1171.58" gradientUnits="userSpaceOnUse">
<stop stop-color="#E5A186"/>
<stop offset="1" stop-color="#E5A186"/>
</linearGradient>
<linearGradient id="paint44_linear_405_2075" x1="875.219" y1="876.246" x2="1989.56" y2="1174.83" gradientUnits="userSpaceOnUse">
<stop stop-color="#E5A186"/>
<stop offset="1" stop-color="#E5A186"/>
</linearGradient>
<linearGradient id="paint45_linear_405_2075" x1="876.305" y1="860.186" x2="1985.26" y2="1178.17" gradientUnits="userSpaceOnUse">
<stop stop-color="#E5A186"/>
<stop offset="1" stop-color="#E5A186"/>
</linearGradient>
<linearGradient id="paint46_linear_405_2075" x1="877.339" y1="844.31" x2="1980.58" y2="1181.6" gradientUnits="userSpaceOnUse">
<stop stop-color="#E5A186"/>
<stop offset="1" stop-color="#E5A186"/>
</linearGradient>
<linearGradient id="paint47_linear_405_2075" x1="878.316" y1="828.617" x2="1975.5" y2="1185.11" gradientUnits="userSpaceOnUse">
<stop stop-color="#E5A186"/>
<stop offset="1" stop-color="#E5A186"/>
</linearGradient>
<linearGradient id="paint48_linear_405_2075" x1="879.234" y1="813.107" x2="1970.03" y2="1188.7" gradientUnits="userSpaceOnUse">
<stop stop-color="#E5A186"/>
<stop offset="1" stop-color="#E5A186"/>
</linearGradient>
<linearGradient id="paint49_linear_405_2075" x1="880.091" y1="797.778" x2="1964.17" y2="1192.35" gradientUnits="userSpaceOnUse">
<stop stop-color="#E5A186"/>
<stop offset="1" stop-color="#E5A186"/>
</linearGradient>
<linearGradient id="paint50_linear_405_2075" x1="880.881" y1="782.629" x2="1957.91" y2="1196.06" gradientUnits="userSpaceOnUse">
<stop stop-color="#E5A186"/>
<stop offset="1" stop-color="#E5A186"/>
</linearGradient>
<linearGradient id="paint51_linear_405_2075" x1="881.603" y1="767.659" x2="1951.25" y2="1199.82" gradientUnits="userSpaceOnUse">
<stop stop-color="#E5A186"/>
<stop offset="1" stop-color="#E5A186"/>
</linearGradient>
<linearGradient id="paint52_linear_405_2075" x1="882.253" y1="752.866" x2="1944.19" y2="1203.63" gradientUnits="userSpaceOnUse">
<stop stop-color="#E5A186"/>
<stop offset="1" stop-color="#E5A186"/>
</linearGradient>
<linearGradient id="paint53_linear_405_2075" x1="882.828" y1="738.251" x2="1936.74" y2="1207.48" gradientUnits="userSpaceOnUse">
<stop stop-color="#E5A186"/>
<stop offset="1" stop-color="#E5A186"/>
</linearGradient>
<linearGradient id="paint54_linear_405_2075" x1="883.325" y1="723.81" x2="1928.89" y2="1211.36" gradientUnits="userSpaceOnUse">
<stop stop-color="#E5A186"/>
<stop offset="1" stop-color="#E5A186"/>
</linearGradient>
<linearGradient id="paint55_linear_405_2075" x1="883.741" y1="709.543" x2="1920.63" y2="1215.27" gradientUnits="userSpaceOnUse">
<stop stop-color="#E5A186"/>
<stop offset="1" stop-color="#E5A186"/>
</linearGradient>
<linearGradient id="paint56_linear_405_2075" x1="884.072" y1="695.448" x2="1911.98" y2="1219.19" gradientUnits="userSpaceOnUse">
<stop stop-color="#E5A186"/>
<stop offset="1" stop-color="#E5A186"/>
</linearGradient>
<linearGradient id="paint57_linear_405_2075" x1="884.318" y1="681.524" x2="1902.93" y2="1223.13" gradientUnits="userSpaceOnUse">
<stop stop-color="#E5A186"/>
<stop offset="1" stop-color="#E5A186"/>
</linearGradient>
<linearGradient id="paint58_linear_405_2075" x1="884.473" y1="667.77" x2="1893.48" y2="1227.07" gradientUnits="userSpaceOnUse">
<stop stop-color="#E5A186"/>
<stop offset="1" stop-color="#E5A186"/>
</linearGradient>
<linearGradient id="paint59_linear_405_2075" x1="884.534" y1="654.183" x2="1883.62" y2="1231.01" gradientUnits="userSpaceOnUse">
<stop stop-color="#E5A186"/>
<stop offset="1" stop-color="#E5A186"/>
</linearGradient>
<linearGradient id="paint60_linear_405_2075" x1="884.5" y1="640.762" x2="1873.37" y2="1234.94" gradientUnits="userSpaceOnUse">
<stop stop-color="#E5A186"/>
<stop offset="1" stop-color="#E5A186"/>
</linearGradient>
<linearGradient id="paint61_linear_405_2075" x1="884.368" y1="627.505" x2="1862.72" y2="1238.85" gradientUnits="userSpaceOnUse">
<stop stop-color="#E5A186"/>
<stop offset="1" stop-color="#E5A186"/>
</linearGradient>
<linearGradient id="paint62_linear_405_2075" x1="884.134" y1="614.411" x2="1851.67" y2="1242.73" gradientUnits="userSpaceOnUse">
<stop stop-color="#E5A186"/>
<stop offset="1" stop-color="#E5A186"/>
</linearGradient>
<linearGradient id="paint63_linear_405_2075" x1="883.795" y1="601.478" x2="1840.21" y2="1246.59" gradientUnits="userSpaceOnUse">
<stop stop-color="#E5A186"/>
<stop offset="1" stop-color="#E5A186"/>
</linearGradient>
<linearGradient id="paint64_linear_405_2075" x1="883.349" y1="588.703" x2="1828.36" y2="1250.41" gradientUnits="userSpaceOnUse">
<stop stop-color="#E5A186"/>
<stop offset="1" stop-color="#E5A186"/>
</linearGradient>
<linearGradient id="paint65_linear_405_2075" x1="882.794" y1="576.086" x2="1816.12" y2="1254.18" gradientUnits="userSpaceOnUse">
<stop stop-color="#E5A186"/>
<stop offset="1" stop-color="#E5A186"/>
</linearGradient>
<linearGradient id="paint66_linear_405_2075" x1="882.125" y1="563.624" x2="1803.47" y2="1257.91" gradientUnits="userSpaceOnUse">
<stop stop-color="#E5A186"/>
<stop offset="1" stop-color="#E5A186"/>
</linearGradient>
<linearGradient id="paint67_linear_405_2075" x1="881.341" y1="551.315" x2="1790.43" y2="1261.57" gradientUnits="userSpaceOnUse">
<stop stop-color="#E5A186"/>
<stop offset="1" stop-color="#E5A186"/>
</linearGradient>
<linearGradient id="paint68_linear_405_2075" x1="880.439" y1="539.157" x2="1776.99" y2="1265.17" gradientUnits="userSpaceOnUse">
<stop stop-color="#E5A186"/>
<stop offset="1" stop-color="#E5A186"/>
</linearGradient>
<linearGradient id="paint69_linear_405_2075" x1="879.418" y1="527.148" x2="1763.16" y2="1268.7" gradientUnits="userSpaceOnUse">
<stop stop-color="#E5A186"/>
<stop offset="1" stop-color="#E5A186"/>
</linearGradient>
<linearGradient id="paint70_linear_405_2075" x1="878.272" y1="515.286" x2="1748.94" y2="1272.15" gradientUnits="userSpaceOnUse">
<stop stop-color="#E5A186"/>
<stop offset="1" stop-color="#E5A186"/>
</linearGradient>
<linearGradient id="paint71_linear_405_2075" x1="877" y1="503.568" x2="1734.33" y2="1275.51" gradientUnits="userSpaceOnUse">
<stop stop-color="#E5A186"/>
<stop offset="1" stop-color="#E5A186"/>
</linearGradient>
<linearGradient id="paint72_linear_405_2075" x1="875.6" y1="491.993" x2="1719.33" y2="1278.78" gradientUnits="userSpaceOnUse">
<stop stop-color="#E5A186"/>
<stop offset="1" stop-color="#E5A186"/>
</linearGradient>
<linearGradient id="paint73_linear_405_2075" x1="874.07" y1="480.558" x2="1703.94" y2="1281.95" gradientUnits="userSpaceOnUse">
<stop stop-color="#E5A186"/>
<stop offset="1" stop-color="#E5A186"/>
</linearGradient>
<linearGradient id="paint74_linear_405_2075" x1="872.407" y1="469.261" x2="1688.16" y2="1285.01" gradientUnits="userSpaceOnUse">
<stop stop-color="#E5A186"/>
<stop offset="1" stop-color="#E5A186"/>
</linearGradient>
<linearGradient id="paint75_linear_405_2075" x1="870.607" y1="458.1" x2="1672" y2="1287.97" gradientUnits="userSpaceOnUse">
<stop stop-color="#E5A186"/>
<stop offset="1" stop-color="#E5A186"/>
</linearGradient>
<linearGradient id="paint76_linear_405_2075" x1="868.67" y1="447.071" x2="1655.46" y2="1290.8" gradientUnits="userSpaceOnUse">
<stop stop-color="#E5A186"/>
<stop offset="1" stop-color="#E5A186"/>
</linearGradient>
<linearGradient id="paint77_linear_405_2075" x1="866.593" y1="436.174" x2="1638.54" y2="1293.5" gradientUnits="userSpaceOnUse">
<stop stop-color="#E5A186"/>
<stop offset="1" stop-color="#E5A186"/>
</linearGradient>
<linearGradient id="paint78_linear_405_2075" x1="864.373" y1="425.405" x2="1621.24" y2="1296.08" gradientUnits="userSpaceOnUse">
<stop stop-color="#E5A186"/>
<stop offset="1" stop-color="#E5A186"/>
</linearGradient>
<linearGradient id="paint79_linear_405_2075" x1="862.009" y1="414.761" x2="1603.56" y2="1298.51" gradientUnits="userSpaceOnUse">
<stop stop-color="#E5A186"/>
<stop offset="1" stop-color="#E5A186"/>
</linearGradient>
<linearGradient id="paint80_linear_405_2075" x1="859.497" y1="404.241" x2="1585.51" y2="1300.8" gradientUnits="userSpaceOnUse">
<stop stop-color="#E5A186"/>
<stop offset="1" stop-color="#E5A186"/>
</linearGradient>
<linearGradient id="paint81_linear_405_2075" x1="856.838" y1="393.841" x2="1567.1" y2="1302.93" gradientUnits="userSpaceOnUse">
<stop stop-color="#E5A186"/>
<stop offset="1" stop-color="#E5A186"/>
</linearGradient>
<linearGradient id="paint82_linear_405_2075" x1="854.026" y1="383.56" x2="1548.31" y2="1304.91" gradientUnits="userSpaceOnUse">
<stop stop-color="#E5A186"/>
<stop offset="1" stop-color="#E5A186"/>
</linearGradient>
<linearGradient id="paint83_linear_405_2075" x1="851.062" y1="373.394" x2="1529.16" y2="1306.72" gradientUnits="userSpaceOnUse">
<stop stop-color="#E5A186"/>
<stop offset="1" stop-color="#E5A186"/>
</linearGradient>
<linearGradient id="paint84_linear_405_2075" x1="847.942" y1="363.34" x2="1509.65" y2="1308.35" gradientUnits="userSpaceOnUse">
<stop stop-color="#E5A186"/>
<stop offset="1" stop-color="#E5A186"/>
</linearGradient>
<linearGradient id="paint85_linear_405_2075" x1="844.666" y1="353.396" x2="1489.78" y2="1309.82" gradientUnits="userSpaceOnUse">
<stop stop-color="#E5A186"/>
<stop offset="1" stop-color="#E5A186"/>
</linearGradient>
<linearGradient id="paint86_linear_405_2075" x1="841.23" y1="343.56" x2="1469.55" y2="1311.09" gradientUnits="userSpaceOnUse">
<stop stop-color="#E5A186"/>
<stop offset="1" stop-color="#E5A186"/>
</linearGradient>
<linearGradient id="paint87_linear_405_2075" x1="837.634" y1="333.828" x2="1448.97" y2="1312.18" gradientUnits="userSpaceOnUse">
<stop stop-color="#E5A186"/>
<stop offset="1" stop-color="#E5A186"/>
</linearGradient>
<linearGradient id="paint88_linear_405_2075" x1="833.875" y1="324.197" x2="1428.05" y2="1313.07" gradientUnits="userSpaceOnUse">
<stop stop-color="#E5A186"/>
<stop offset="1" stop-color="#E5A186"/>
</linearGradient>
<linearGradient id="paint89_linear_405_2075" x1="829.952" y1="314.666" x2="1406.78" y2="1313.76" gradientUnits="userSpaceOnUse">
<stop stop-color="#E5A186"/>
<stop offset="1" stop-color="#E5A186"/>
</linearGradient>
<linearGradient id="paint90_linear_405_2075" x1="825.863" y1="305.23" x2="1385.16" y2="1314.23" gradientUnits="userSpaceOnUse">
<stop stop-color="#E5A186"/>
<stop offset="1" stop-color="#E5A186"/>
</linearGradient>
<linearGradient id="paint91_linear_405_2075" x1="821.606" y1="295.887" x2="1363.21" y2="1314.5" gradientUnits="userSpaceOnUse">
<stop stop-color="#E5A186"/>
<stop offset="1" stop-color="#E5A186"/>
</linearGradient>
<linearGradient id="paint92_linear_405_2075" x1="817.18" y1="286.635" x2="1340.93" y2="1314.54" gradientUnits="userSpaceOnUse">
<stop stop-color="#E5A186"/>
<stop offset="1" stop-color="#E5A186"/>
</linearGradient>
<linearGradient id="paint93_linear_405_2075" x1="812.584" y1="277.468" x2="1318.31" y2="1314.36" gradientUnits="userSpaceOnUse">
<stop stop-color="#E5A186"/>
<stop offset="1" stop-color="#E5A186"/>
</linearGradient>
<linearGradient id="paint94_linear_405_2075" x1="807.814" y1="268.387" x2="1295.37" y2="1313.95" gradientUnits="userSpaceOnUse">
<stop stop-color="#E5A186"/>
<stop offset="1" stop-color="#E5A186"/>
</linearGradient>
<linearGradient id="paint95_linear_405_2075" x1="802.871" y1="259.386" x2="1272.1" y2="1313.3" gradientUnits="userSpaceOnUse">
<stop stop-color="#E5A186"/>
<stop offset="1" stop-color="#E5A186"/>
</linearGradient>
<linearGradient id="paint96_linear_405_2075" x1="797.753" y1="250.463" x2="1248.52" y2="1312.4" gradientUnits="userSpaceOnUse">
<stop stop-color="#E5A186"/>
<stop offset="1" stop-color="#E5A186"/>
</linearGradient>
<linearGradient id="paint97_linear_405_2075" x1="792.459" y1="241.615" x2="1224.62" y2="1311.26" gradientUnits="userSpaceOnUse">
<stop stop-color="#E5A186"/>
<stop offset="1" stop-color="#E5A186"/>
</linearGradient>
<linearGradient id="paint98_linear_405_2075" x1="786.987" y1="232.839" x2="1200.42" y2="1309.86" gradientUnits="userSpaceOnUse">
<stop stop-color="#E5A186"/>
<stop offset="1" stop-color="#E5A186"/>
</linearGradient>
<linearGradient id="paint99_linear_405_2075" x1="781.335" y1="224.131" x2="1175.91" y2="1308.21" gradientUnits="userSpaceOnUse">
<stop stop-color="#E5A186"/>
<stop offset="1" stop-color="#E5A186"/>
</linearGradient>
<linearGradient id="paint100_linear_405_2075" x1="775.503" y1="215.49" x2="1151.1" y2="1306.29" gradientUnits="userSpaceOnUse">
<stop stop-color="#E5A186"/>
<stop offset="1" stop-color="#E5A186"/>
</linearGradient>
<linearGradient id="paint101_linear_405_2075" x1="769.492" y1="206.91" x2="1125.99" y2="1304.1" gradientUnits="userSpaceOnUse">
<stop stop-color="#E5A186"/>
<stop offset="1" stop-color="#E5A186"/>
</linearGradient>
<linearGradient id="paint102_linear_405_2075" x1="763.296" y1="198.39" x2="1100.59" y2="1301.63" gradientUnits="userSpaceOnUse">
<stop stop-color="#E5A186"/>
<stop offset="1" stop-color="#E5A186"/>
</linearGradient>
<linearGradient id="paint103_linear_405_2075" x1="756.918" y1="189.926" x2="1074.91" y2="1298.89" gradientUnits="userSpaceOnUse">
<stop stop-color="#E5A186"/>
<stop offset="1" stop-color="#E5A186"/>
</linearGradient>
<linearGradient id="paint104_linear_405_2075" x1="750.355" y1="181.514" x2="1048.94" y2="1295.85" gradientUnits="userSpaceOnUse">
<stop stop-color="#E5A186"/>
<stop offset="1" stop-color="#E5A186"/>
</linearGradient>
<linearGradient id="paint105_linear_405_2075" x1="743.608" y1="173.153" x2="1022.7" y2="1292.53" gradientUnits="userSpaceOnUse">
<stop stop-color="#E5A186"/>
<stop offset="1" stop-color="#E5A186"/>
</linearGradient>
<linearGradient id="paint106_linear_405_2075" x1="736.674" y1="164.838" x2="996.189" y2="1288.92" gradientUnits="userSpaceOnUse">
<stop stop-color="#E5A186"/>
<stop offset="1" stop-color="#E5A186"/>
</linearGradient>
<linearGradient id="paint107_linear_405_2075" x1="729.554" y1="156.565" x2="969.411" y2="1285" gradientUnits="userSpaceOnUse">
<stop stop-color="#E5A186"/>
<stop offset="1" stop-color="#E5A186"/>
</linearGradient>
<linearGradient id="paint108_linear_405_2075" x1="722.245" y1="148.333" x2="942.372" y2="1280.79" gradientUnits="userSpaceOnUse">
<stop stop-color="#E5A186"/>
<stop offset="1" stop-color="#E5A186"/>
</linearGradient>
<linearGradient id="paint109_linear_405_2075" x1="714.75" y1="140.137" x2="915.079" y2="1276.26" gradientUnits="userSpaceOnUse">
<stop stop-color="#E5A186"/>
<stop offset="1" stop-color="#E5A186"/>
</linearGradient>
<linearGradient id="paint110_linear_405_2075" x1="707.065" y1="131.975" x2="887.535" y2="1271.42" gradientUnits="userSpaceOnUse">
<stop stop-color="#E5A186"/>
<stop offset="1" stop-color="#E5A186"/>
</linearGradient>
<linearGradient id="paint111_linear_405_2075" x1="699.19" y1="123.842" x2="859.747" y2="1266.26" gradientUnits="userSpaceOnUse">
<stop stop-color="#E5A186"/>
<stop offset="1" stop-color="#E5A186"/>
</linearGradient>
<linearGradient id="paint112_linear_405_2075" x1="691.126" y1="115.737" x2="831.72" y2="1260.79" gradientUnits="userSpaceOnUse">
<stop stop-color="#E5A186"/>
<stop offset="1" stop-color="#E5A186"/>
</linearGradient>
<linearGradient id="paint113_linear_405_2075" x1="682.872" y1="107.654" x2="803.461" y2="1254.98" gradientUnits="userSpaceOnUse">
<stop stop-color="#E5A186"/>
<stop offset="1" stop-color="#E5A186"/>
</linearGradient>
<linearGradient id="paint114_linear_405_2075" x1="674.427" y1="99.5915" x2="774.974" y2="1248.85" gradientUnits="userSpaceOnUse">
<stop stop-color="#E5A186"/>
<stop offset="1" stop-color="#E5A186"/>
</linearGradient>
<linearGradient id="paint115_linear_405_2075" x1="665.791" y1="91.5462" x2="746.265" y2="1242.39" gradientUnits="userSpaceOnUse">
<stop stop-color="#E5A186"/>
<stop offset="1" stop-color="#E5A186"/>
</linearGradient>
<linearGradient id="paint116_linear_405_2075" x1="656.963" y1="83.5138" x2="717.34" y2="1235.58" gradientUnits="userSpaceOnUse">
<stop stop-color="#E5A186"/>
<stop offset="1" stop-color="#E5A186"/>
</linearGradient>
<linearGradient id="paint117_linear_405_2075" x1="647.945" y1="75.4916" x2="688.207" y2="1228.44" gradientUnits="userSpaceOnUse">
<stop stop-color="#E5A186"/>
<stop offset="1" stop-color="#E5A186"/>
</linearGradient>
<linearGradient id="paint118_linear_405_2075" x1="638.735" y1="67.4761" x2="658.869" y2="1220.95" gradientUnits="userSpaceOnUse">
<stop stop-color="#E5A186"/>
<stop offset="1" stop-color="#E5A186"/>
</linearGradient>
<linearGradient id="paint119_linear_405_2075" x1="629.332" y1="59.4637" x2="629.332" y2="1213.11" gradientUnits="userSpaceOnUse">
<stop stop-color="#E5A186"/>
<stop offset="1" stop-color="#E5A186"/>
</linearGradient>
<clipPath id="clip0_405_2075">
<rect width="2198.58" height="2319.94" fill="white"/>
</clipPath>
</defs>
</svg>
