<svg width="128" height="126" viewBox="0 0 128 126" fill="none" xmlns="http://www.w3.org/2000/svg">
<g filter="url(#filter0_d_402_1949)">
<path fill-rule="evenodd" clip-rule="evenodd" d="M69.2159 87.4028C66.5135 87.385 63.8622 86.3067 61.8093 84.4584C59.7566 82.6101 58.4071 80.0859 58.1069 77.4002C57.9781 76.2475 58.808 75.2088 59.9607 75.0798C61.1133 74.951 62.1521 75.781 62.281 76.9336C62.46 78.5356 63.2836 80.1342 64.6198 81.3372C65.9558 82.5403 67.6317 83.1922 69.2436 83.2028L69.2159 87.4028ZM69.2436 83.2028L77.3786 83.2562C77.3787 83.2562 77.3785 83.2562 77.3786 83.2562C78.9799 83.2664 80.3662 82.649 81.2929 81.6197C82.2197 80.5903 82.6889 79.1474 82.5113 77.5558C82.3325 75.9535 81.5089 74.3545 80.1726 73.1512C78.8361 71.9479 77.1597 71.296 75.5475 71.2857L71.4806 71.2596C70.3208 71.2523 69.3867 70.306 69.3941 69.1463C69.4015 67.9865 70.3477 67.0523 71.5074 67.0597L75.5744 67.0858C78.2774 67.103 80.9296 68.1812 82.9829 70.03C85.0362 71.8788 86.3856 74.4037 86.6854 77.0902C86.9863 79.7872 86.2002 82.4463 84.4141 84.4301C82.628 86.4137 80.0656 87.4735 77.3518 87.4562L69.2159 87.4028" fill="url(#paint0_linear_402_1949)"/>
<path fill-rule="evenodd" clip-rule="evenodd" d="M51.3788 87.2901C48.6757 87.2728 46.0236 86.1946 43.9703 84.3458C41.917 82.497 40.5675 79.9721 40.2678 77.2857C39.9669 74.5885 40.7529 71.9294 42.5391 69.9457C44.3252 67.9621 46.8875 66.9023 49.6014 66.9196H49.6017L57.7371 66.973H57.7372C60.4397 66.9908 63.091 68.069 65.1438 69.9174C67.1966 71.7657 68.546 74.2899 68.8463 76.9756C68.9751 78.1282 68.1452 79.1671 66.9925 79.2959C65.8399 79.4247 64.8011 78.5948 64.6722 77.4422C64.4932 75.8402 63.6696 74.2416 62.3335 73.0385C60.9973 71.8355 59.3214 71.1836 57.7095 71.1729L49.5745 71.1195C47.9731 71.1094 46.5871 71.7268 45.6603 72.7561C44.7334 73.7854 44.2643 75.2284 44.4419 76.82C44.6207 78.4222 45.4442 80.0212 46.7806 81.2245C48.1171 82.4278 49.7934 83.0798 51.4056 83.0902L55.4725 83.1161C56.6324 83.1236 57.5666 84.0697 57.5591 85.2296C57.5516 86.3893 56.6055 87.3235 55.4458 87.3161L51.3788 87.2901L51.3921 85.1901L51.3788 87.2901Z" fill="url(#paint1_linear_402_1949)"/>
<path fill-rule="evenodd" clip-rule="evenodd" d="M93.0058 39.8421C93.618 39.5692 94.3172 39.5692 94.9293 39.8421L115.871 49.1755C116.723 49.5552 117.272 50.4006 117.272 51.3333V74.6666C117.272 75.5994 116.723 76.4448 115.871 76.8245L94.9293 86.1578C94.1984 86.4837 93.3524 86.4173 92.6813 85.9817C92.0101 85.5459 91.6051 84.8002 91.6051 84V62.2002L75.3886 54.9727V60.6667C75.3886 61.9714 74.3308 63.0292 73.0261 63.0292C71.7212 63.0292 70.6636 61.9714 70.6636 60.6667V51.3333C70.6636 50.4006 71.2123 49.5552 72.0643 49.1755L93.0058 39.8421ZM78.8295 51.3333L93.9676 58.0801L109.106 51.3333L93.9676 44.5866L78.8295 51.3333ZM112.547 54.9727L96.3301 62.2002V80.3606L112.547 73.1331V54.9727Z" fill="white"/>
<path fill-rule="evenodd" clip-rule="evenodd" d="M33.1616 40.8921C33.7737 40.6192 34.4729 40.6192 35.0851 40.8921L56.0266 50.2255C56.8786 50.6051 57.4273 51.4506 57.4273 52.3833V61.7167C57.4273 63.0214 56.3696 64.0792 55.0648 64.0792C53.7601 64.0792 52.7023 63.0214 52.7023 61.7167V56.0227L36.4858 63.2502V85.05C36.4858 85.8502 36.0808 86.5959 35.4096 87.0315C34.7385 87.4673 33.8925 87.5335 33.1616 87.2078L12.2201 77.8745C11.3681 77.4948 10.8193 76.6493 10.8193 75.7166V52.3833C10.8193 51.4506 11.3681 50.6051 12.2201 50.2255L33.1616 40.8921ZM34.1233 59.1301L49.2614 52.3833L34.1233 45.6365L18.9853 52.3833L34.1233 59.1301ZM15.5444 56.0227V74.1831L31.7608 81.4106V63.2502L15.5444 56.0227Z" fill="white"/>
</g>
<defs>
<filter id="filter0_d_402_1949" x="-9" y="-6" width="146" height="146" filterUnits="userSpaceOnUse" color-interpolation-filters="sRGB">
<feFlood flood-opacity="0" result="BackgroundImageFix"/>
<feColorMatrix in="SourceAlpha" type="matrix" values="0 0 0 0 0 0 0 0 0 0 0 0 0 0 0 0 0 0 127 0" result="hardAlpha"/>
<feOffset dy="4"/>
<feGaussianBlur stdDeviation="5"/>
<feComposite in2="hardAlpha" operator="out"/>
<feColorMatrix type="matrix" values="0 0 0 0 0 0 0 0 0 0 0 0 0 0 0 0 0 0 0.15 0"/>
<feBlend mode="normal" in2="BackgroundImageFix" result="effect1_dropShadow_402_1949"/>
<feBlend mode="normal" in="SourceGraphic" in2="effect1_dropShadow_402_1949" result="shape"/>
</filter>
<linearGradient id="paint0_linear_402_1949" x1="66.4101" y1="85.7751" x2="80.2546" y2="70.3993" gradientUnits="userSpaceOnUse">
<stop stop-color="white"/>
<stop offset="1" stop-color="white"/>
</linearGradient>
<linearGradient id="paint1_linear_402_1949" x1="46.6986" y1="83.9765" x2="60.5431" y2="68.6007" gradientUnits="userSpaceOnUse">
<stop stop-color="white"/>
<stop offset="1" stop-color="white"/>
</linearGradient>
</defs>
</svg>
