<svg width="24" height="31" viewBox="0 0 24 31" fill="none" xmlns="http://www.w3.org/2000/svg">
<path d="M15.8125 3H7.1875C3.21856 3 0 6.21856 0 10.1875V18.8125C0 22.7814 3.21856 26 7.1875 26H15.8125C19.7814 26 23 22.7814 23 18.8125V10.1875C23 6.21856 19.7814 3 15.8125 3ZM20.8438 18.8125C20.8438 21.5869 18.5869 23.8438 15.8125 23.8438H7.1875C4.41313 23.8438 2.15625 21.5869 2.15625 18.8125V10.1875C2.15625 7.41313 4.41313 5.15625 7.1875 5.15625H15.8125C18.5869 5.15625 20.8438 7.41313 20.8438 10.1875V18.8125Z" fill="white"/>
<path d="M11.5 8.75C8.32456 8.75 5.75 11.3246 5.75 14.5C5.75 17.6754 8.32456 20.25 11.5 20.25C14.6754 20.25 17.25 17.6754 17.25 14.5C17.25 11.3246 14.6754 8.75 11.5 8.75ZM11.5 18.0938C9.51912 18.0938 7.90625 16.4809 7.90625 14.5C7.90625 12.5177 9.51912 10.9062 11.5 10.9062C13.4809 10.9062 15.0938 12.5177 15.0938 14.5C15.0938 16.4809 13.4809 18.0938 11.5 18.0938Z" fill="white"/>
<path d="M17.6812 9.08486C18.1044 9.08486 18.4474 8.74183 18.4474 8.31867C18.4474 7.89552 18.1044 7.55249 17.6812 7.55249C17.2581 7.55249 16.915 7.89552 16.915 8.31867C16.915 8.74183 17.2581 9.08486 17.6812 9.08486Z" fill="white"/>
</svg>
