<svg width="23" height="23" viewBox="0 0 23 23" fill="none" xmlns="http://www.w3.org/2000/svg">
<path d="M18.5436 2.44995H3.85676C3.0802 2.44995 2.4502 3.07995 2.4502 3.85651V18.5434C2.4502 19.32 3.0802 19.9499 3.85676 19.9499H18.5436C19.3202 19.9499 19.9502 19.32 19.9502 18.5434V3.85651C19.9502 3.07995 19.3202 2.44995 18.5436 2.44995ZM18.5436 18.5499C8.74801 18.5478 3.8502 18.5456 3.8502 18.5434C3.85238 8.74776 3.85457 3.84995 3.85676 3.84995C13.6524 3.85214 18.5502 3.85433 18.5502 3.85651C18.548 13.6521 18.5458 18.5499 18.5436 18.5499ZM5.04457 9.01026H7.64113V17.3621H5.04457V9.01026ZM6.34395 7.86839C7.17301 7.86839 7.84894 7.19464 7.84894 6.36339C7.84894 6.16575 7.81002 5.97004 7.73438 5.78745C7.65875 5.60485 7.54789 5.43894 7.40814 5.29919C7.26839 5.15944 7.10248 5.04858 6.91988 4.97295C6.73729 4.89732 6.54158 4.85839 6.34395 4.85839C6.14631 4.85839 5.9506 4.89732 5.76801 4.97295C5.58541 5.04858 5.4195 5.15944 5.27975 5.29919C5.14 5.43894 5.02914 5.60485 4.95351 5.78745C4.87787 5.97004 4.83894 6.16575 4.83894 6.36339C4.83676 7.19464 5.51051 7.86839 6.34395 7.86839ZM11.863 13.2299C11.863 12.1406 12.0708 11.0862 13.4205 11.0862C14.7505 11.0862 14.7702 12.3309 14.7702 13.2999V17.3621H17.3646V12.7815C17.3646 10.5328 16.8789 8.80245 14.2518 8.80245C12.9896 8.80245 12.143 9.49589 11.7952 10.1521H11.7602V9.01026H9.26863V17.3621H11.863V13.2299Z" fill="white"/>
</svg>
