<svg width="20" height="19" viewBox="0 0 20 19" fill="none" xmlns="http://www.w3.org/2000/svg">
<g clip-path="url(#clip0_422_1949)">
<path d="M19.5364 0L10.9546 6.35L12.5504 2.60773L19.5364 0Z" fill="#E17726"/>
<path d="M0.483398 0.00750732L7.45074 2.60821L8.96605 6.39946L0.483398 0.00750732Z" fill="#E27625"/>
<path d="M16.0828 13.5045L19.8758 13.5767L18.5502 18.08L13.9219 16.8057L16.0828 13.5045Z" fill="#E27625"/>
<path d="M3.91715 13.5045L6.06996 16.8057L1.44941 18.0801L0.131836 13.5767L3.91715 13.5045Z" fill="#E27625"/>
<path d="M8.76006 5.43378L8.91514 10.4403L4.27686 10.2292L5.59615 8.23878L5.61287 8.21964L8.76006 5.43378Z" fill="#E27625"/>
<path d="M11.1915 5.37787L14.3869 8.21974L14.4034 8.2388L15.7228 10.2293L11.0854 10.4402L11.1915 5.37787Z" fill="#E27625"/>
<path d="M6.20576 13.519L8.73842 15.4924L5.79639 16.9128L6.20576 13.519Z" fill="#E27625"/>
<path d="M13.7946 13.5187L14.1955 16.9129L11.2617 15.4923L13.7946 13.5187Z" fill="#E27625"/>
<path d="M11.3262 15.3064L14.3033 16.748L11.534 18.0641L11.5627 17.1942L11.3262 15.3064Z" fill="#D5BFB2"/>
<path d="M8.67285 15.307L8.44559 17.18L8.46426 18.063L5.68848 16.7479L8.67285 15.307Z" fill="#D5BFB2"/>
<path d="M7.81309 11.0937L8.59105 12.7287L5.94238 11.9528L7.81309 11.0937Z" fill="#233447"/>
<path d="M12.187 11.0938L14.0665 11.9527L11.4092 12.7284L12.187 11.0938Z" fill="#233447"/>
<path d="M6.40844 13.5023L5.98031 17.0211L3.68555 13.5793L6.40844 13.5023Z" fill="#CC6228"/>
<path d="M13.5918 13.5023L16.3148 13.5793L14.0114 17.0212L13.5918 13.5023Z" fill="#CC6228"/>
<path d="M15.7899 10.0302L13.8082 12.0498L12.2804 11.3516L11.5489 12.8894L11.0693 10.245L15.7899 10.0302Z" fill="#CC6228"/>
<path d="M4.20898 10.0302L8.93047 10.2451L8.45086 12.8894L7.71922 11.3519L6.19945 12.0499L4.20898 10.0302Z" fill="#CC6228"/>
<path d="M4.07568 9.61578L6.31771 11.8909L6.39537 14.137L4.07568 9.61578Z" fill="#E27525"/>
<path d="M15.9269 9.61169L13.603 14.1408L13.6905 11.8908L15.9269 9.61169Z" fill="#E27525"/>
<path d="M8.82062 9.75433L8.91086 10.3223L9.13383 11.7371L8.99047 16.0829L8.31273 12.5919L8.3125 12.5558L8.82062 9.75433Z" fill="#E27525"/>
<path d="M11.1781 9.74646L11.6876 12.5558L11.6873 12.5919L11.0079 16.0917L10.981 15.2163L10.875 11.7115L11.1781 9.74646Z" fill="#E27525"/>
<path d="M13.8898 11.8005L13.8141 13.7519L11.4488 15.5946L10.9707 15.2568L11.5066 12.4963L13.8898 11.8005Z" fill="#F5841F"/>
<path d="M6.11865 11.8005L8.49365 12.4963L9.02959 15.2568L8.55146 15.5946L6.18615 13.7516L6.11865 11.8005Z" fill="#F5841F"/>
<path d="M5.23584 16.317L8.26178 17.7508L8.24897 17.1385L8.50209 16.9162H11.497L11.7594 17.1377L11.74 17.7495L14.7468 16.3206L13.2837 17.5297L11.5145 18.7447H8.47787L6.7099 17.5247L5.23584 16.317Z" fill="#C0AC9D"/>
<path d="M11.1096 15.1156L11.5375 15.4178L11.7882 17.4181L11.4254 17.1118H8.57566L8.21973 17.4243L8.46223 15.4179L8.8902 15.1156H11.1096Z" fill="#161616"/>
<path d="M18.9697 0.175781L19.9999 3.26617L19.3565 6.39094L19.8147 6.7443L19.1947 7.21726L19.6607 7.57711L19.0437 8.13891L19.4225 8.4132L18.4173 9.58711L14.2947 8.38672L14.259 8.36758L11.2881 5.86148L18.9697 0.175781Z" fill="#763E1A"/>
<path d="M1.03016 0.175781L8.71187 5.86148L5.74094 8.36758L5.70523 8.38672L1.58258 9.58711L0.577344 8.4132L0.955781 8.13914L0.339219 7.57711L0.804219 7.21773L0.175 6.74336L0.650391 6.38977L0 3.26633L1.03016 0.175781Z" fill="#763E1A"/>
<path d="M14.093 8.12421L18.4612 9.39608L19.8804 13.7699H16.1363L13.5566 13.8024L15.4327 10.1455L14.093 8.12421Z" fill="#F5841F"/>
<path d="M5.90689 8.12421L4.56697 10.1455L6.4433 13.8024L3.86479 13.7699H0.127441L1.53861 9.39608L5.90689 8.12421Z" fill="#F5841F"/>
<path d="M12.7642 2.58687L11.5423 5.88679L11.2831 10.3446L11.1839 11.7419L11.1761 15.3112H8.82355L8.8159 11.7486L8.71637 10.3434L8.45699 5.88679L7.23535 2.58679L12.7642 2.58687Z" fill="#F5841F"/>
</g>
<defs>
<clipPath id="clip0_422_1949">
<rect width="20" height="18.75" fill="white"/>
</clipPath>
</defs>
</svg>
