<svg width="24" height="31" viewBox="0 0 24 31" fill="none" xmlns="http://www.w3.org/2000/svg">
<path d="M23 7.36856C22.1447 7.74375 21.2333 7.99244 20.2831 8.11319C21.2606 7.52956 22.0067 6.61244 22.3574 5.507C21.4461 6.05037 20.4398 6.43419 19.3674 6.64838C18.5021 5.72694 17.2687 5.15625 15.9232 5.15625C13.3127 5.15625 11.2111 7.27513 11.2111 9.87269C11.2111 10.2464 11.2427 10.6058 11.3203 10.9479C7.40025 10.7567 3.93156 8.87794 1.60137 6.01588C1.19456 6.72169 0.955938 7.52956 0.955938 8.39925C0.955938 10.0322 1.79688 11.4798 3.05037 12.3179C2.29281 12.3035 1.54962 12.0836 0.92 11.7371C0.92 11.7515 0.92 11.7702 0.92 11.7889C0.92 14.0802 2.55444 15.9835 4.69775 16.4219C4.31394 16.5269 3.89562 16.5772 3.4615 16.5772C3.15963 16.5772 2.85487 16.5599 2.56881 16.4967C3.17975 18.364 4.91338 19.7368 6.97475 19.7814C5.3705 21.0363 3.33356 21.7924 1.12844 21.7924C0.74175 21.7924 0.370875 21.7752 0 21.7277C2.08869 23.0747 4.56406 23.8438 7.2335 23.8438C15.9102 23.8438 20.654 16.6562 20.654 10.4261C20.654 10.2177 20.6468 10.0164 20.6367 9.81663C21.5726 9.1525 22.3589 8.32306 23 7.36856Z" fill="white"/>
</svg>
