<svg width="36" height="35" viewBox="0 0 36 35" fill="none" xmlns="http://www.w3.org/2000/svg">
<path d="M7.29769 18.935C6.9809 18.9347 6.67263 19.0375 6.41948 19.228C6.16634 19.4184 5.98209 19.6861 5.8946 19.9906C5.80712 20.2951 5.82115 20.6197 5.93459 20.9155C6.04802 21.2113 6.25468 21.4621 6.52331 21.63L10.4433 25.55C10.5788 25.6854 10.7396 25.7928 10.9166 25.866C11.0936 25.9393 11.2833 25.9769 11.4749 25.9769C11.6664 25.9768 11.8561 25.939 12.033 25.8656C12.21 25.7923 12.3707 25.6848 12.5061 25.5493C12.6415 25.4138 12.7489 25.2529 12.8222 25.0759C12.8954 24.899 12.9331 24.7093 12.933 24.5177C12.9329 24.3262 12.8951 24.1365 12.8218 23.9596C12.7484 23.7826 12.6409 23.6219 12.5054 23.4865L10.8706 21.8531H21.881C22.2678 21.8531 22.6387 21.6995 22.9122 21.426C23.1857 21.1525 23.3394 20.7816 23.3394 20.3948C23.3394 20.008 23.1857 19.6371 22.9122 19.3636C22.6387 19.0901 22.2678 18.9365 21.881 18.9365H7.29769V18.935Z" fill="black"/>
<path d="M27.7348 16.065C28.0516 16.0653 28.3598 15.9625 28.613 15.772C28.8661 15.5816 29.0504 15.3139 29.1379 15.0094C29.2254 14.7049 29.2113 14.3803 29.0979 14.0845C28.9845 13.7887 28.7778 13.5379 28.5092 13.37L24.5892 9.44999C24.3155 9.17654 23.9445 9.023 23.5576 9.02313C23.1707 9.02327 22.7998 9.17708 22.5263 9.45072C22.2529 9.72436 22.0994 10.0954 22.0995 10.4823C22.0996 10.8691 22.2534 11.2401 22.5271 11.5135L24.1619 13.1469H13.1514C12.7647 13.1469 12.3937 13.3005 12.1203 13.574C11.8468 13.8475 11.6931 14.2184 11.6931 14.6052C11.6931 14.992 11.8468 15.3629 12.1203 15.6364C12.3937 15.9099 12.7647 16.0635 13.1514 16.0635H27.7348V16.065Z" fill="black"/>
</svg>
